<svg width="273" height="239" fill="none" xmlns="http://www.w3.org/2000/svg"><mask id="a" maskUnits="userSpaceOnUse" x="34" y="0" width="239" height="239"><path d="M272.5 119.5c0 65.722-53.254 119-118.945 119S34.61 185.222 34.61 119.5c0-65.722 53.254-119 118.945-119S272.5 53.778 272.5 119.5z" fill="#fff" stroke="#E0E0E0"/></mask><g mask="url(#a)"><path d="M272.5 119.5c0 65.722-53.254 119-118.945 119S34.61 185.222 34.61 119.5c0-65.722 53.254-119 118.945-119S272.5 53.778 272.5 119.5z" fill="#7451EB" fill-opacity=".08" stroke="#E0E0E0"/><g filter="url(#filter0_d)"><path d="M134.192 164.328a.378.378 0 01-.372-.316l-2.516-15.742a.376.376 0 11.743-.12l2.517 15.742a.376.376 0 01-.312.432c-.019 0-.038.004-.06.004zM137.872 167.826a.377.377 0 01-.376-.376v-9.344c0-.206.169-.376.376-.376.206 0 .375.17.375.376v9.348a.374.374 0 01-.375.372zM131.093 166.303a.378.378 0 01-.356-.251l-2.783-8.082a.376.376 0 01.233-.477.377.377 0 01.477.233l2.782 8.081a.377.377 0 01-.232.478.437.437 0 01-.121.018zM127.507 224.613a.378.378 0 01-.319-.575l3.455-5.602a.378.378 0 01.518-.124.378.378 0 01.124.519l-3.455 5.602a.377.377 0 01-.323.18zM133.823 228.547a.376.376 0 01-.368-.451l2.024-9.772a.375.375 0 11.736.15l-2.024 9.772a.38.38 0 01-.368.301zM142.754 225.447a.377.377 0 01-.372-.334l-.834-7.27a.375.375 0 11.747-.087l.834 7.27a.378.378 0 01-.33.417c-.015.004-.03.004-.045.004z" fill="#000"/><path d="M235.917 195.203h-.017" stroke="gray" stroke-width="2" stroke-miterlimit="10" stroke-linecap="round" stroke-linejoin="round"/><path d="M236.797 195.68a444.54 444.54 0 00-14.157 11.621c-1.908-1.759-3.718-3.701-5.468-5.579-2.587-2.777-5.257-5.643-8.333-8.007a22.46 22.46 0 00-.766-.574.368.368 0 00-.218-.068h-.004a.364.364 0 00-.33.207 1011.923 1011.923 0 00-37.478-18.324 165.505 165.505 0 019.125-8.866 1453.768 1453.768 0 0157.629 29.59z" fill="#F7EBE7"/><path d="M154.661 167.976c-2.538 2.258-5.081 4.516-7.619 6.774-.699-.729-1.698-1.15-2.655-1.515-.488-.184-.98-.364-1.476-.537.3-.263.601-.518.901-.766 2.28-1.935 4.604-3.81 6.978-5.628 1.183.514 2.865 1.225 3.871 1.672z" fill="#000"/><path d="M99.297 213.774c-.139.079-.278.158-.417.229a46.99 46.99 0 01-12.546-7.72.378.378 0 01-.064-.072c.079-.064.18-.135.308-.214a46.857 46.857 0 0012.72 7.777z" fill="#E1A897"/><path d="M221.39 207.155c-4.12-1.158-10.988-5.275-15.266-7.845-.386-.233-.751-.451-1.092-.658l3.654-4.106c2.884 2.262 5.448 5.019 7.934 7.687 1.536 1.645 3.11 3.34 4.77 4.922z" fill="#F7EBE7"/><path d="M151.019 166.6l-.177.136a183.238 183.238 0 00-7.521 6.108l-.41-.146c-.116-.041-.233-.083-.353-.12a.388.388 0 01.105-.162c.305-.267.609-.526.909-.774a180.277 180.277 0 016.97-5.62c.008-.004.011-.012.019-.015a.372.372 0 01.229-.079.33.33 0 01.082.011.31.31 0 01.083.026c.049.027.094.06.132.109a.373.373 0 01-.068.526zM112.403 212.869c-1.423-2.145-3.857-3.351-6.189-4.441-2.711-1.266-5.482-2.513-8.442-2.957-2.009-.304-4.187-.27-6.023-.995-.342.086-.687.165-1.033.229-1.404.259-3.068.492-4.138 1.292a46.856 46.856 0 0014.818 8.581c2.227.789 4.552 1.413 6.906 1.477h.004c.199.007.394.011.593.007.35-.003.695-.022 1.044-.052h.004c1.205-.094 2.4-.312 3.59-.549-.252-.917-.608-1.796-1.134-2.592zm-3.47 2.69c-2.636-1.108-5.411-1.841-8.134-2.735a41.932 41.932 0 01-1.314-.44c-2.96-1.041-5.892-2.423-8.142-4.583 5.716 1.063 11.499 2.209 16.663 4.869.57.293 1.182.661 1.381 1.273.181.56-.052 1.18-.454 1.616z" fill="#000"/><path d="M208.64 194.034c-4.983 5.602-9.966 11.2-14.946 16.802h-.004c-19.738.935-39.472 1.867-59.21 2.803l-6.658.315c-4.112.196-8.243.391-12.298 1.124-.661.12-1.318.255-1.983.383h-.004c-.251-.917-.608-1.796-1.134-2.593-1.423-2.145-3.857-3.351-6.189-4.44-2.711-1.267-5.482-2.514-8.442-2.957-2.009-.305-4.187-.271-6.023-.996a15.402 15.402 0 005.945-3.039c.968-.808 1.915-2.003 1.562-3.216-.263-.898-1.195-1.466-2.118-1.593-.928-.128-1.86.101-2.768.323-4.777 1.168-9.644 2.22-14.563 2.093-1.307-.034-2.614-.151-3.913-.053a123.306 123.306 0 01-11.589-9.599c8.126-5.546 17.943-8.258 27.748-9.216 9.08-.891 18.228-.361 27.335.308.372.747.785 1.473 1.232 2.179.908 1.439 1.941 2.81 2.966 4.17 1.273 1.68 2.944 3.539 5.036 3.295.357-.041.736-.169.928-.473.169-.267.154-.613.105-.925-.218-1.375-.954-2.603-1.487-3.888-.533-1.285-.864-2.784-.267-4.039.113-.237.248-.451.409-.65 3.061.304 6.144.778 8.762 2.348.953.575 1.821 1.281 2.681 1.988.109.086.214.176.323.263-6.557.003-11.871 4.617-11.871 10.309 0 5.692 5.322 10.309 11.882 10.309 6.561 0 11.878-4.617 11.878-10.309a9.02 9.02 0 00-.199-1.897 1.785 1.785 0 001.258-1c.338-.759.162-1.672-.263-2.385-.424-.714-1.066-1.274-1.705-1.804a86.665 86.665 0 00-4.622-3.576c.57-.218 1.074-.564 1.34-1.097.263-.526.237-1.15.034-1.706.695-.406 1.089-1.326.98-2.157-.101-.774-.533-1.457-1.089-2.017.267-.722.124-1.642-.338-2.292a3.15 3.15 0 00-.319-.379c2.539-2.258 5.081-4.516 7.619-6.774a913.414 913.414 0 0110.932 4.929c1.484.676 2.967 1.36 4.45 2.051a1016.524 1016.524 0 0137.809 18.492h.003c.267.188.526.387.785.586z" fill="#F7EBE7"/><path d="M119.388 180.483c-9.107-.669-18.255-1.198-27.335-.308-9.805.958-19.621 3.671-27.748 9.216a123.14 123.14 0 0011.589 9.599l-.128.012c-1.926.169-3.778.822-5.644 1.356a290.16 290.16 0 01-13.117-9.825c1.228-1.48 2.869-2.611 4.525-3.618 8.198-4.989 17.601-7.754 27.132-8.975a76.526 76.526 0 011.836-.218c9.238-.996 18.567-.632 27.827.18.158.443.316.883.492 1.315.177.432.368.853.571 1.266z" fill="#000"/><path d="M151.766 193.163c-1.029-4.79-5.866-8.412-11.679-8.412h-.011c-6.557.004-11.871 4.617-11.871 10.309 0 5.692 5.322 10.31 11.882 10.31 6.561 0 11.878-4.618 11.878-10.31a9.02 9.02 0 00-.199-1.897zm-11.679 9.798c-5.028 0-9.106-3.539-9.106-7.901 0-4.365 4.078-7.901 9.106-7.901 5.029 0 9.103 3.536 9.103 7.901 0 4.362-4.074 7.901-9.103 7.901z" fill="#7451EB"/><path d="M149.19 195.06c0 4.362-4.074 7.901-9.103 7.901-5.028 0-9.106-3.539-9.106-7.901 0-4.365 4.078-7.901 9.106-7.901 5.029 0 9.103 3.536 9.103 7.901z" fill="#F2F2F2"/><path d="M240.651 193.583a.33.33 0 01-.094.113 40.38 40.38 0 00-.721.564 258.994 258.994 0 00-1.671 1.3l-.038.03c-.244.191-.492.383-.732.578a451.381 451.381 0 00-14.499 11.895c-.008.008-.102.124-.267.113-.015 0-.03 0-.045-.004-.008 0-.015 0-.023-.004-.007 0-.011 0-.018-.004-3.992-.525-12.006-5.331-16.805-8.209-.432-.259-.842-.507-1.213-.728l-.267-.158a.325.325 0 01-.056-.045.366.366 0 01-.012-.549.374.374 0 01.451-.052c.019.011.041.022.064.037.105.064.214.128.327.192l1.092.657c4.278 2.57 11.146 6.688 15.266 7.845-1.66-1.582-3.234-3.276-4.77-4.922-2.486-2.667-5.05-5.425-7.934-7.687l-.275-.214c-.007-.007-.015-.011-.022-.015a8.971 8.971 0 00-.301-.229 11.947 11.947 0 00-.409-.304h-.004a.093.093 0 00-.022-.019.37.37 0 01-.132-.485.364.364 0 01.331-.207h.004c.056 0 .108.012.157.034.015.008.03.015.045.027.004 0 .012.003.015.007a22.114 22.114 0 01.766.575c.004.004.012.007.015.011.016.011.034.027.049.038 3.05 2.355 5.701 5.2 8.27 7.957 1.749 1.879 3.56 3.821 5.467 5.579a444.293 444.293 0 0114.158-11.62c-.293-.162-.586-.319-.879-.477a1454.424 1454.424 0 00-56.75-29.114 165.542 165.542 0 00-9.126 8.867 569.967 569.967 0 00-4.45-2.051c.631-.519 1.258-1.041 1.886-1.563a234.539 234.539 0 004.697-4.031 236.89 236.89 0 005.836-5.313c10.984 3.524 20.662 10.238 30.85 15.704.214.117.428.23.642.339-.004.007 0 .015 0 .022a.38.38 0 00.372.316c.019 0 .037 0 .06-.004.053-.008.101-.015.154-.026 9.674 5.083 20.361 9.464 29.885 14.851.225.124.45.256.676.383z" fill="#000"/><path d="M207.855 193.824a.406.406 0 01-.176-.041 1014.396 1014.396 0 00-37.794-18.485 961.902 961.902 0 00-15.374-6.981c-.589-.263-1.412-.616-2.23-.965-.575-.248-1.15-.492-1.638-.707a.375.375 0 01-.195-.495.375.375 0 01.496-.196c.488.211 1.059.459 1.633.703.823.353 1.649.706 2.242.969a957.267 957.267 0 0110.936 4.929 1023.873 1023.873 0 0142.262 20.544c.127.06.218.188.218.342a.384.384 0 01-.38.383zM134.777 213.868a.369.369 0 01-.525.068 20.96 20.96 0 01-.774-.628c-1.006-.856-1.765-1.694-2.358-2.588-.714-1.071-1.198-2.273-1.671-3.434-.237-.586-.481-1.191-.751-1.766-.954-2.04-2.152-3.344-3.56-3.866-.661-.248-1.371-.327-2.122-.41-.845-.094-1.716-.195-2.531-.548-1.919-.838-2.847-2.735-3.744-4.572-.575-1.176-1.168-2.394-2.017-3.31-1.739-1.883-4.488-2.454-6.688-2.743-.466-.06-.935-.113-1.405-.165-2.08-.237-4.228-.485-6.158-1.405-.421-.203-.894-.466-1.24-.891-.72-.883-.672-2.314.11-3.329.604-.789 1.592-1.345 2.865-1.611 2.437-.508 4.878.124 7.236.732 1.889.492 3.846 1 5.764.898a9.325 9.325 0 005.183-1.935l.034-.022c.063.109.127.214.195.319l.203.316a10.069 10.069 0 01-5.577 2.074c-2.035.101-4.044-.417-5.99-.921-2.381-.616-4.63-1.198-6.898-.725-.759.158-1.799.518-2.422 1.334-.492.642-.676 1.717-.12 2.397.251.312.638.522.98.687 1.817.868 3.901 1.105 5.922 1.334.473.053.946.105 1.415.169 2.325.304 5.239.917 7.139 2.976.924.999 1.544 2.265 2.145 3.494.875 1.788 1.701 3.482 3.368 4.208.71.311 1.491.398 2.317.492.762.086 1.551.173 2.298.451 1.596.597 2.937 2.028 3.981 4.256.274.59.526 1.206.766 1.8.454 1.127.928 2.292 1.596 3.302.672 1.011 1.581 1.954 2.858 2.95.034.03.071.056.109.086a.373.373 0 01.067.526z" fill="#000"/><path d="M208.922 194.282l-.237.263-3.654 4.107-.507.574-.011.012c-3.515 3.948-7.022 7.893-10.533 11.842l-.004.004c-.008.007-.015.018-.026.026a.28.28 0 01-.057.045c-.004 0-.004.004-.007 0a.256.256 0 01-.087.041h-.003a.3.3 0 01-.102.015h-.004l-59.209 2.803-6.64.316c-4.048.191-8.224.39-12.25 1.116-.42.078-.837.161-1.258.244l-.721.139c-.007.004-.015.004-.022.004-1.082.214-2.34.45-3.613.552a15.3 15.3 0 01-1.074.052h-.165c-.147 0-.297-.003-.447-.007-2.062-.056-4.292-.534-7.019-1.499a42.761 42.761 0 01-2.118-.812c-.09-.037-.184-.075-.274-.116a46.968 46.968 0 01-12.546-7.721.373.373 0 01-.064-.071c.079-.064.18-.136.308-.214.105-.079.214-.151.326-.215a46.253 46.253 0 0012.536 7.642c.668.278 1.37.545 2.084.8 2.647.94 4.807 1.402 6.79 1.454a12.195 12.195 0 001.596-.045c1.25-.094 2.489-.33 3.556-.541.007-.003.015-.003.022-.003l.699-.139c.424-.083.845-.166 1.269-.241 4.078-.736 8.277-.935 12.336-1.131l5.686-.27 1.123-.053 57.599-2.724-38.669-18.751c.049-.263.06-.541.026-.819l40.047 19.413c3.447-3.881 6.899-7.759 10.35-11.636l.236-.263 3.898-4.388.252-.282.019-.023a.38.38 0 01.48-.067c.004.004.012.007.015.011a.15.15 0 01.038.026l.011.012c.143.139.15.368.019.518z" fill="#000"/><path d="M146.449 198.914c-.44.38-5.757-2.919-5.99-3.054a1.278 1.278 0 01-.95-1.236c0-.706.574-1.281 1.28-1.281.402 0 .767.188.999.481 0 0 5.108 4.703 4.661 5.09z" fill="#E27356"/><path d="M152.314 210.441a6.483 6.483 0 00-1.07 2.029c-.083.248-.146.5-.195.759l-.77.038a7.486 7.486 0 011.506-3.355c.296-.38.822.154.529.529zM153.546 208.21a62.716 62.716 0 002.497-3.461c.271-.402-.379-.777-.65-.379a63.595 63.595 0 01-2.377 3.31c-.293.375.237.913.53.53zM158.443 202.657a46.159 46.159 0 014.142-2.664c.421-.24.042-.89-.379-.649a46.355 46.355 0 00-4.142 2.663c-.387.282-.011.932.379.65zM171.091 197.821a101.867 101.867 0 00-5.362 1.18c-.47.116-.669-.609-.199-.725.311-.079.619-.154.931-.226a95.629 95.629 0 014.431-.953c.473-.091.672.634.199.724zM174.294 196.675a13.942 13.942 0 003.71-1.1c.44-.199.06-.845-.379-.65a13.112 13.112 0 01-3.53 1.025c-.477.072-.274.796.199.725zM180.667 194.004l2.974-2.389c.376-.305-.157-.831-.529-.53l-2.974 2.389c-.38.305.157.831.529.53zM185.684 189.605a40.553 40.553 0 001.667-2.792c.23-.424-.416-.804-.649-.379a37.583 37.583 0 01-1.668 2.791c-.262.406.387.785.65.38zM215.854 196.175a9.733 9.733 0 00-2.79 1.266c-.18-.181-.36-.357-.544-.53a10.559 10.559 0 013.135-1.461c.466-.131.661.594.199.725zM217.8 195.92a13.657 13.657 0 013.717.146c.474.086.676-.638.199-.725a14.44 14.44 0 00-3.916-.173c-.477.046-.485.797 0 .752zM223.988 196.946a7.282 7.282 0 014.21 1.405c.394.282.77-.368.379-.65a8.025 8.025 0 00-4.589-1.511c-.484-.003-.484.748 0 .756zM232.569 200.019c-.195.154-.394.312-.589.473a4.647 4.647 0 00-.613-.469 4.952 4.952 0 00-1.273-.605c-.461-.146-.262-.871.199-.725a5.867 5.867 0 012.276 1.326z" fill="#000"/><path d="M151.244 212.471a5.732 5.732 0 00-.195.758l-.77.038c.045-.259.105-.515.176-.762l.789-.034zM168.714 198.306c-.395.086-.789.173-1.179.263l-1.074-.518c.386-.094.773-.184 1.164-.271l1.089.526z" fill="#000"/><path d="M129.505 63.2a.36.36 0 01-.24-.09.375.375 0 01-.045-.53l.563-.669c.743-.883 1.487-1.762 2.227-2.648.484-.58.935-1.097 1.472-1.507a1.67 1.67 0 01-.177-.928 2.15 2.15 0 01.534-1.172c-.387-.511-.616-1.187-.691-2.07a.372.372 0 01.341-.406.368.368 0 01.406.342c.06.706.225 1.24.503 1.63.195-.139.413-.259.639-.36.277-.12.642-.245 1.025-.158.413.086.83.488.766.984-.038.323-.278.609-.639.77-.552.248-1.243.158-1.806-.218a1.439 1.439 0 00-.338.748.881.881 0 00.068.432c.067-.034.131-.067.199-.098.225-.1.567-.221.924-.12.221.06.42.226.529.436a.72.72 0 01.038.582c-.09.222-.286.391-.552.481-.447.147-.924.042-1.311-.281-.481.368-.905.856-1.363 1.4a466.65 466.65 0 01-2.231 2.65l-.563.668a.348.348 0 01-.278.132zm5.179-5.286a.505.505 0 00.409-.027.112.112 0 00-.049-.033c-.086-.023-.206-.004-.36.06zm.319-2.262c.278.131.597.177.886.045.12-.053.192-.131.195-.177.004-.045-.079-.135-.18-.157-.18-.042-.394.037-.567.112a4.014 4.014 0 00-.334.177z" fill="#7451EB"/><path d="M120.023 98.065c-.961 0-1.971-.075-3.027-.222a.374.374 0 01-.319-.425.374.374 0 01.424-.319c3.681.515 6.768.102 9.178-1.232 1.66-.917 2.937-2.322 3.647-3.885-.89-.594-1.619-1.386-2.069-2.337-.391-.819-.496-1.6-.305-2.262.222-.781.999-1.521 1.919-1.408 1.067.131 1.608 1.232 1.758 2.216.176 1.154.037 2.345-.372 3.48 1.39.74 3.113.965 4.694.491 2.546-.762 4.612-3.126 5.265-6.018.579-2.551.117-5.478-1.299-8.247-1.127-2.202-2.779-4.283-5.355-6.748a.374.374 0 01.518-.54c2.64 2.524 4.337 4.666 5.505 6.946 1.499 2.923 1.983 6.034 1.367 8.754-.713 3.152-2.985 5.733-5.783 6.575-1.746.522-3.643.281-5.194-.522-.781 1.679-2.151 3.178-3.928 4.162-1.862 1.026-4.082 1.54-6.624 1.54zm9.261-11.35c-.462 0-.89.432-1.014.871-.173.609.045 1.278.263 1.732.371.778.957 1.44 1.671 1.95.323-.973.432-1.984.281-2.964-.105-.68-.458-1.503-1.107-1.586-.034 0-.064-.003-.094-.003zM124.653 55.99a.357.357 0 01-.191-.052c-3.857-2.284-6.779-6.071-8.007-10.385-1.231-4.313-.747-9.069 1.322-13.048a.373.373 0 01.507-.158.373.373 0 01.158.508 17.14 17.14 0 00-1.266 12.496c1.18 4.129 3.974 7.754 7.669 9.944a.374.374 0 01-.192.695zM141.139 54.033c-.139-1.845-1.397-3.573-3.132-4.302-1.698-.714-3.774-.455-5.291.654-1.48 1.082-2.385 2.915-2.355 4.79.007.38.049.752.086 1.116.038.35.075.684.083 1.018a5.579 5.579 0 01-2.073 4.415.287.287 0 00-.064.071 2.475 2.475 0 00-.683-.053c-.316.023-.549.117-.721.29-.226.229-.305.578-.214.92a.997.997 0 00-.342.019c-.357.094-.71.42-.691.857.011.304.203.53.319.665.71.837 1.431 1.604 2.46 1.788.101.019.203.026.297.026.322 0 .593-.105.781-.304.202-.214.285-.526.232-.846a3 3 0 00.316.027c.293.007.511-.083.646-.263.161-.21.169-.485.019-.812-.027-.056-.049-.112-.079-.165l2.764-2.791c.353-.357.754-.76 1.228-.898.319-.094.676-.072 1.051-.046.21.015.428.03.65.023 2.197-.056 3.793-1.984 4.397-3.87.263-.823.368-1.608.316-2.33zm-11.912 10.121a.379.379 0 00-.481.076.376.376 0 000 .488c.128.154.267.316.323.477.041.117.034.24-.019.297-.06.06-.214.082-.398.049-.781-.14-1.4-.804-2.02-1.533-.038-.045-.139-.165-.139-.21 0-.02.053-.08.124-.098.007-.004.019-.004.026-.004.132 0 .455.083.601.12.098.023.188.045.248.057a.374.374 0 00.345-.624c-.127-.143-.266-.29-.323-.44-.041-.105-.026-.214.012-.248.015-.018.071-.06.24-.071.469-.034.988.162 1.412.537.278.248.526.575.751.988.068.124.135.26.199.402 0 .004.004.008.004.012a1.846 1.846 0 01-.905-.275zm10.883-8.02c-.507 1.58-1.882 3.301-3.703 3.347a6.212 6.212 0 01-.582-.023c-.424-.026-.864-.056-1.311.075-.661.192-1.153.691-1.551 1.093l-2.61 2.638a3.905 3.905 0 00-.676-.797 2.892 2.892 0 00-.51-.364c1.352-1.195 2.155-3.006 2.114-4.809-.008-.368-.049-.733-.086-1.086-.042-.36-.079-.702-.083-1.048-.026-1.63.759-3.231 2.047-4.166 1.31-.959 3.098-1.18 4.555-.572 1.483.624 2.557 2.097 2.674 3.667.048.624-.045 1.315-.278 2.044zM140.816 25.855a.226.226 0 00-.023-.068.311.311 0 00-.03-.056l-.041-.045c0-.004 0-.004-.004-.008a.428.428 0 00-.037-.034c-.496-.492-5.262-5.041-10.376-5.041h-.019c-5.107.01-8.664 3.817-9.058 4.264-.022.019-.03.03-.037.037-.008.012-.019.023-.027.034a.34.34 0 00-.03.06.182.182 0 00-.026.08.356.356 0 00.007.184c.128.499 2.047 7.374 9.321 7.611.128.008.256.008.383.008 6.97 0 9.779-6.316 9.971-6.77a.38.38 0 00.026-.256zm-8.45 6.161c-.597.09-1.231.132-1.907.11a9.403 9.403 0 01-3.076-.598c-3.879-1.484-5.201-5.267-5.483-6.24.673-.541 3.17-2.416 6.208-3.025a9.096 9.096 0 012.246-.192c.92.038 1.866.23 2.793.511 3.11.94 6.001 2.893 6.839 3.487-.522 1.086-2.798 5.196-7.62 5.947z" fill="#003668"/><path d="M135.649 27.094a5.327 5.327 0 01-3.283 4.921c-.597.09-1.231.132-1.907.11a9.4 9.4 0 01-3.076-.598 5.312 5.312 0 01-2.377-4.433 5.314 5.314 0 013.102-4.832 9.092 9.092 0 012.246-.192c.92.038 1.866.23 2.793.511a5.315 5.315 0 012.502 4.513z" fill="#7451EB"/><path d="M130.249 29.086a1.987 1.987 0 10-.001-3.973 1.987 1.987 0 00.001 3.973z" fill="#003668"/><path d="M209.406 85.43v.004a192.206 192.206 0 004 12.65c.15.424.101.898-.135 1.273l-.008.008a7.67 7.67 0 01-.214.29 28.898 28.898 0 01-.676.864c-.176.221-.357.439-.541.653a13.55 13.55 0 01-.311.364 9.69 9.69 0 01-.335.372c-.12.143-.251.286-.386.425a22.184 22.184 0 01-1.514 1.476c-.097.087-.199.173-.3.26a7.144 7.144 0 01-.293.244 16.608 16.608 0 01-.838.65c-4.138 3.021-9.29 4.103-14.48 4.099-.278 0-.56-.004-.837-.011a31.958 31.958 0 01-1.457-.057 27.285 27.285 0 01-.575-.037 17.37 17.37 0 01-.702-.057 1.666 1.666 0 01-1.341-.995c-.011-.027-.019-.053-.03-.079a59.943 59.943 0 01-.725-2.157c-.116-.364-.225-.732-.334-1.097-.06-.199-.116-.398-.173-.597a62.968 62.968 0 01-.646-2.476 26.382 26.382 0 01-3.075-1.57c-4.833-2.86-8.81-7.18-11.142-12.297-1.337-2.93-2.148-6.072-2.956-9.19-1.34-5.207-2.685-10.414-4.029-15.622 1.664-2.58 4.743-4.14 7.785-4.91 3.503-.887 7.176-.988 10.638-2.021 1.987-.594 3.883-1.485 5.919-1.875 6.466-1.229 13.049 3.114 16.136 8.934.222.417.458.872.89 1.074 1.187.553 2.07-1.187 3.189-1.87.12-.076.247-.136.379-.18 1.145-.418 2.55.183 3.323 1.175.86 1.105 1.119 2.551 1.318 3.937.297 2.055.511 4.197-.123 6.173-.47 1.458-1.514 2.807-2.862 3.453a.606.606 0 00-.334.496 26.385 26.385 0 01-2.205 8.224z" fill="#986129"/><path d="M210.289 61.971a1.822 1.822 0 00-.379.18c-1.12.684-2.002 2.424-3.189 1.871-.432-.202-.668-.657-.89-1.074-3.087-5.82-9.67-10.163-16.136-8.934-2.036.39-3.932 1.28-5.919 1.874-3.462 1.034-7.135 1.135-10.638 2.022-3.042.77-6.122 2.33-7.785 4.91l-1.72-6.676c-.781-3.02-1.566-6.09-1.461-9.209.105-3.114 1.228-6.341 3.658-8.299 3.428-2.761 10.357-2.799 12.648-3.13 2.29-.326 6.654-2.299 9.166-1.761 2.479.526 4.646 1.98 6.97 2.99a20.63 20.63 0 008.277 1.706c1.663-.008 3.56-.132 4.724 1.052 1.269 1.288.965 3.374 1.299 5.15.365 1.947 1.563 3.63 2.224 5.501 1.34 3.798.364 7.935-.849 11.827zM211.397 72.45a.378.378 0 01-.368-.447c.296-1.518.323-3.062.079-4.588-.061-.368-.136-.65-.308-.815a.402.402 0 00-.305-.094c-.033.004-.078.019-.097.053-.034.056-.049.18-.064.285-.034.26-.09.65-.481.816a.373.373 0 01-.492-.2.378.378 0 01.181-.484c.018-.045.033-.158.045-.233.026-.177.052-.376.161-.564a.859.859 0 01.642-.413c.331-.049.688.064.928.293.349.33.466.793.537 1.244a13.867 13.867 0 01-.086 4.85.383.383 0 01-.372.297z" fill="#000"/><path d="M279.871 179.691c-.627 5.057-4.506 9.257-9.062 11.538-4.555 2.284-9.733 2.945-14.807 3.366-4.198.349-8.412.56-12.625.627-1.803.034-3.605.038-5.408.019.781-.62 1.57-1.232 2.359-1.841-9.738-5.613-20.272-9.813-30.238-15.05-.195-.098-.391-.2-.586-.309a22.035 22.035 0 01-.642-.338c-10.188-5.466-19.866-12.18-30.85-15.704a234.87 234.87 0 01-5.836 5.312c-.878-6.462-1.761-12.916-2.64-19.378-.139-1.019-.278-2.04-.409-3.062-.552 8.825-1.1 17.646-1.649 26.472-.627.522-1.254 1.044-1.885 1.563a913.343 913.343 0 00-10.931-4.93c-1.007-.447-2.689-1.157-3.872-1.672a179.447 179.447 0 00-6.977 5.629c-1.367-3.836-1.593-8.007-1.525-12.091a92.07 92.07 0 015.914-30.958c1.187-3.137 2.558-6.236 4.503-8.968 2.88-4.046 6.902-7.134 11.056-9.858a104.478 104.478 0 0119.719-10.13c.991.591 2.016 1.117 3.075 1.571.199.831.413 1.653.646 2.476.057.199.113.399.173.598.109.364.218.732.334 1.097l.192.593c.169.523.349 1.045.533 1.563.011.027.019.053.03.079.233.549.747.924 1.341.996.019.003.041.007.06.007.022.004.049.004.071.004.188.019.379.034.571.045.192.015.383.026.575.038.484.03.968.049 1.457.056.278.008.559.011.837.011 5.19.004 10.342-1.078 14.481-4.099.142-.105.285-.21.424-.319.139-.105.278-.218.413-.331.101-.078.199-.161.293-.244a22.438 22.438 0 001.814-1.736c.135-.139.266-.281.386-.424a9.69 9.69 0 00.335-.372c.105-.12.21-.24.311-.364.188-.215.368-.433.541-.654.214-.263.421-.526.624-.793.018-.022.037-.045.052-.071.053-.064.105-.132.154-.2.023-.03.041-.06.06-.09l.008-.007c.236-.376.285-.85.135-1.274-.394-1.108-.778-2.22-1.149-3.34a72.404 72.404 0 0120.312 1.188c4.548.916 9.129 2.333 12.753 5.233 3.455 2.758 5.787 6.65 7.894 10.535 1.836 3.392 3.56 6.845 5.28 10.302 8.01 16.08 16.08 32.318 20.47 49.743.657 2.6 1.232 5.282.905 7.946z" fill="#00EDA2"/><path d="M251.255 168.562c-.21 1.029-1.457 1.356-1.926 1.48a417.213 417.213 0 01-39.393 8.333c-.023.004-.041.004-.06.004a.378.378 0 01-.372-.316c0-.007-.004-.015 0-.022a.376.376 0 01.312-.41 415.802 415.802 0 0039.321-8.314c.864-.229 1.304-.515 1.382-.906.057-.259-.06-.563-.206-.905l-12.573-29.669a.376.376 0 01.691-.293l12.573 29.669c.15.353.357.838.251 1.349z" fill="#000"/><path d="M234.364 141.974a56.103 56.103 0 00-4.728-13.379l-.007-.019a.38.38 0 00-.421-.192c-.011 0-.019.004-.03.008a131.153 131.153 0 00-16.415 6.518c-.011.008-.026.012-.037.019a.382.382 0 00-.165.154.302.302 0 00-.034.083.286.286 0 00-.015.097v.004c0 .027.004.053.011.083 0 .007 0 .015.004.019l.819 3.591a.317.317 0 00.015.072l1.712 7.544c.131.563.289 1.266.74 1.8.323.383.766.634 1.123.841a55.332 55.332 0 007.559 3.569c.792.305 1.607.564 2.4.564.458 0 .905-.087 1.337-.301.698-.349 1.171-.973 1.588-1.525l3.41-4.509c.496-.657 1.059-1.401 1.273-2.288.225-.913.052-1.863-.139-2.753zm-.59 2.573c-.18.74-.672 1.39-1.145 2.018l-3.41 4.508c-.383.507-.781 1.033-1.325 1.304-.909.451-2.04.127-3.129-.29a54.924 54.924 0 01-7.458-3.524c-.386-.221-.698-.413-.923-.672-.331-.395-.462-.973-.579-1.48l-1.626-7.146a30.545 30.545 0 0012.922-4.343.374.374 0 00.124-.515.372.372 0 00-.514-.124 29.658 29.658 0 01-12.701 4.238l-.691-3.043a130.433 130.433 0 0115.784-6.271 55.267 55.267 0 014.525 12.924c.184.842.33 1.657.146 2.416z" fill="#F7EBE7"/><path d="M187.903 68.85l-.187-1.363a.18.18 0 01.075-.173c.548-.364 3.447-2.24 5.667-2.559 2.429-.353 5.05-.627 7.259.703a.189.189 0 01.086.154v.943c0 .116-.105.2-.218.173a16.947 16.947 0 00-4.3-.425c-2.452.075-6.057 1.59-8.126 2.68a.176.176 0 01-.256-.132zM180.773 69.162a.21.21 0 00-.128-.222c-.567-.24-2.685-1.085-4.66-1.085-2.22 0-5.025.849-6.328 1.69a.213.213 0 00-.079.26l.3.766a.22.22 0 00.256.131c.646-.176 2.895-.744 5.175-.744 2.208 0 4.341.534 5.039.725a.216.216 0 00.271-.184l.154-1.337zM186.214 87.166c-.383 0-.718-.082-.999-.3-.582-.44-.834-1.323-.868-3.043-.071-3.701-1.393-10.01-1.404-10.073a.373.373 0 11.732-.154c.056.263 1.348 6.443 1.419 10.212.027 1.4.207 2.182.571 2.457.402.304 1.225.086 2.366-.21.207-.053.421-.11.646-.166a.375.375 0 01.454.274.373.373 0 01-.274.455c-.225.056-.435.113-.642.165-.785.21-1.446.383-2.001.383z" fill="#000"/><path d="M200.776 71.882c-.36.804-1.427 2.701-3.778 3.536a5.77 5.77 0 01-.882.247 6.094 6.094 0 01-3.113-.157c-1.45-.459-2.516-1.341-2.997-1.796.601-.459 1.987-1.431 3.56-1.984a7.243 7.243 0 011.48-.368l.041-.004c.079-.007.154-.019.24-.022 2.1-.2 4.51.319 5.449.548z" fill="#F7EBE7"/><path d="M201.61 71.45a.373.373 0 00-.225-.184c-.135-.037-3.32-.943-6.121-.683-.09.007-.177.019-.263.026l-.045.008a7.819 7.819 0 00-1.671.417c-2.216.785-4.007 2.295-4.082 2.359a.382.382 0 00-.132.26c-.007.097.027.198.094.273.057.064 1.416 1.605 3.613 2.296a6.832 6.832 0 003.492.18c.335-.067.669-.161.981-.278 3.357-1.187 4.348-4.256 4.386-4.384a.368.368 0 00-.027-.29zm-8.607 4.058c-1.449-.458-2.516-1.341-2.996-1.796.6-.458 1.986-1.431 3.56-1.983a.107.107 0 00.037-.015 7.26 7.26 0 011.442-.354l.041-.003c.079-.008.154-.02.241-.023 2.099-.199 4.51.32 5.449.549-.361.804-1.427 2.701-3.778 3.535a5.752 5.752 0 01-.883.248 6.096 6.096 0 01-3.113-.158zM180.881 74.257a.377.377 0 00-.263-.18c-.142-.027-3.515-.606-6.132.21-4.405 1.37-4.623 3.997-4.63 4.11a.377.377 0 00.109.289c1.22 1.217 2.553 1.83 4.067 1.871.067.004.135.004.202.004.643 0 1.33-.102 2.088-.312.703-.192 1.401-.661 2.073-1.398 1.536-1.675 2.471-4.17 2.513-4.275a.396.396 0 00-.027-.32zm-4.754 5.27c-.766.207-1.442.301-2.073.279-1.277-.034-2.369-.519-3.421-1.518.12-.534.762-2.254 4.078-3.288 1.893-.59 4.315-.38 5.314-.251-.33.774-1.111 2.427-2.185 3.595-.575.631-1.153 1.03-1.713 1.184z" fill="#000"/><path d="M180.025 74.748c-.33.774-1.111 2.427-2.185 3.595-.575.632-1.153 1.03-1.713 1.184-.766.207-1.442.3-2.073.278-1.277-.034-2.369-.519-3.421-1.518.12-.533.763-2.254 4.078-3.287 1.893-.59 4.315-.38 5.314-.252z" fill="#F7EBE7"/><path d="M197.862 73.84c0 .74-.277 1.42-.736 1.931a6.56 6.56 0 01-.931.263 6.459 6.459 0 01-3.305-.17 2.879 2.879 0 01-.822-2.024c0-1.04.548-1.958 1.374-2.465l.004-.004a2.882 2.882 0 011.848-.413 2.896 2.896 0 012.568 2.882zM178.29 77.615c0 .346-.06.677-.173.98-.556.61-1.194 1.102-1.893 1.293-.796.218-1.517.316-2.181.293a2.899 2.899 0 114.247-2.566zM194.521 90.713c-.158.116-3.812 2.907-5.686 3.437a3.224 3.224 0 01-.879.113c-1.851 0-4.029-1.236-4.134-1.3a.376.376 0 01-.162-.47.38.38 0 01.451-.218c.026.008 2.591.722 4.69.196 2.144-.534 5.269-2.363 5.299-2.382a.376.376 0 01.421.624z" fill="#000"/><path d="M190.187 102.047c-3.158 0-5.46-1.48-5.58-1.563a.375.375 0 01.409-.627c.034.022 3.594 2.303 7.774 1.059 4.243-1.262 6.921-3.67 9.241-8.31a.38.38 0 01.504-.17c.184.09.259.32.169.504-2.423 4.847-5.232 7.364-9.7 8.694-.984.3-1.934.413-2.817.413z" fill="#854C1D"/><path d="M222.918 140.084a3.797 3.797 0 00-2.061 1.36l1.633 1.172a1.814 1.814 0 111.844 2.927 1.818 1.818 0 01-1.097-.057l-.856 1.819a3.822 3.822 0 005.194-4.479 3.811 3.811 0 00-4.657-2.742z" fill="#003668"/><path d="M167.478 171.718h-.022a.377.377 0 01-.353-.398c.548-8.826 1.096-17.647 1.648-26.472a.38.38 0 01.365-.354c.184-.022.36.136.383.327.131 1.022.27 2.04.409 3.058l2.64 19.379a.38.38 0 01-.323.425.38.38 0 01-.424-.323l-2.543-18.65c-.473 7.551-.942 15.103-1.408 22.655a.374.374 0 01-.372.353z" fill="#000"/></g></g><g filter="url(#filter1_d)"><path d="M153.024 192.163a1.786 1.786 0 01-1.258 1c-1.029-4.791-5.865-8.412-11.679-8.412h-.011c-.109-.087-.214-.177-.323-.263-.86-.707-1.727-1.413-2.681-1.988-2.618-1.57-5.701-2.044-8.761-2.348a3.201 3.201 0 00-.41.65c-.597 1.255-.266 2.754.267 4.039.533 1.285 1.269 2.513 1.487 3.888.049.312.064.658-.105.925-.192.304-.571.432-.928.473-2.091.244-3.762-1.616-5.035-3.295-1.026-1.36-2.058-2.731-2.967-4.17a24.595 24.595 0 01-1.232-2.179 20.436 20.436 0 01-.571-1.267 31.683 31.683 0 01-.492-1.314c-9.26-.812-18.588-1.176-27.826-.181-.612.064-1.225.139-1.837.218a4.63 4.63 0 01-1.938-2.258c-.71-1.815-.439-3.843-.157-5.771 1.153-7.923 2.302-15.843 3.455-23.767a78.412 78.412 0 0016.857-1.063c-1.228 5.264-2.456 10.524-3.687 15.787-.117.504-.237 1.011-.353 1.514-.26 1.105-.519 2.228-.451 3.363.049.811.289 1.642.758 2.295h.004c1.803.338 3.707.252 5.558.192 11.559-.38 23.309.624 34.203 4.467.496.173.988.353 1.476.537.958.365 1.957.786 2.655 1.514.117.117.222.245.319.38.462.65.605 1.57.338 2.292.556.559.988 1.243 1.089 2.017.109.83-.285 1.751-.98 2.157.203.556.229 1.179-.033 1.705-.267.534-.77.88-1.341 1.097a87.642 87.642 0 014.623 3.577c.638.53 1.28 1.09 1.705 1.804.424.713.6 1.626.262 2.385z" fill="#E1A897"/><path d="M107.716 157.283c-.51 1.296-1.171 2.641-2.377 3.336-.634.365-1.449.447-2.148.248 1.232-5.263 2.46-10.523 3.688-15.787.225-.037.447-.079.672-.12.796-10.467 1.397-21.392-2.918-30.935-.687-1.522-1.513-3.01-2.602-4.257-.004-4.625-.244-9.246-1.348-13.717a64.499 64.499 0 00-2.377 11.019c-1.713-.762-3.61-1.191-5.453-1.596l-8.727-1.916c1.438-.774 2.76-1.8 4.025-2.848 2.873-2.375 5.618-4.945 7.898-7.883.274.11.555.207.837.29.44.127.935.221 1.337 0 .402-.222.59-.692.732-1.127.545-1.672.88-3.415 1.21-5.159 5.771-7.22 7.965-17.23 5.61-26.186-.101.03-.514.142-1.07.293-1.168.32-2.963.815-3.782 1.16a202.547 202.547 0 01-33.062 10.644c-.45-1.296-1.652-2.34-3.03-2.51-1.713-.206-3.489.966-3.97 2.623-1.017 3.505 3.193 6.297 4.068 9.843.3 1.233.183 2.529.341 3.791.597 4.682 4.807 8.022 6.65 12.368.692 1.627 1.03 3.333 1.157 5.076v.004c.256 3.441-.296 7.033-.529 10.516-.436 6.473.29 12.965.368 19.45.079 6.489-.537 13.169-3.444 18.969-2.906 5.797-8.49 10.588-14.96 11.054-1.247.086-2.618-.023-3.546-.861-1.066-.962-1.228-2.547-1.314-3.982-.522-8.581-1.048-17.166-1.57-25.747-1.678 9.246-.912 18.74-.142 28.11a1.816 1.816 0 01-1.998-.109 139.789 139.789 0 011.652-46.907c-5.622 13.74-4.664 29.174-3.451 43.969.154 1.871-.32 4.475-2.193 4.452-1.562-.015-2.257-1.939-2.528-3.475-1.333-7.608-2.673-15.299-2.196-23.008.653-10.584 4.69-20.641 6.688-31.056.45-2.348.796-4.711 1.074-7.082.86-7.319 1.074-14.728 1.724-22.08.856-9.735 2.553-19.62 7.266-28.178 4.717-8.558 12.91-15.667 22.588-16.967 3.451-.462 6.963-.187 10.41.286 7.747 1.06 16.227 3.772 19.835 10.711 1.138 2.194 1.687 4.644 2.1 7.082 3.582 21.19-2.19 42.88-.868 64.328.909 14.747 5.077 30.124-.327 43.871z" fill="#A37052"/><path d="M100.164 86.831c-.33 1.743-.664 3.487-1.209 5.159-.142.435-.33.905-.732 1.127-.402.221-.897.127-1.337 0a9.62 9.62 0 01-.837-.29c-2.28 2.938-5.025 5.508-7.898 7.883-1.265 1.048-2.587 2.073-4.025 2.847-.8.432-1.638.789-2.52 1.022-2.468.658-5.393.188-7.041-1.766a6.147 6.147 0 00-1.487 1.12c-.128-1.743-.466-3.449-1.157-5.076-1.844-4.347-6.054-7.687-6.65-12.368-.159-1.262-.042-2.558-.343-3.79-.874-3.547-5.084-6.339-4.066-9.844.48-1.657 2.256-2.83 3.969-2.623 1.378.17 2.58 1.214 3.03 2.51a202.56 202.56 0 0033.062-10.644c.819-.345 2.614-.841 3.782-1.16.555-.15.969-.263 1.07-.294 2.354 8.957.161 18.966-5.611 26.187z" fill="#E1A897"/><path d="M64.587 77.292a.378.378 0 01-.263-.105c-.447-.436-.954-.928-1.243-1.574-.346-.77-.27-1.623.195-2.168a1.515 1.515 0 011.247-.5c.417.03.77.233.969.556a.377.377 0 01-.639.398c-.097-.161-.285-.195-.387-.206a.742.742 0 00-.615.237c-.316.371-.267.958-.083 1.375.229.514.66.935 1.082 1.34.15.147.15.384.007.53a.37.37 0 01-.27.117z" fill="#A37052"/><path d="M107.551 144.96a78.482 78.482 0 01-17.53 1.184l-3.454 23.767c-.282 1.927-.552 3.956.157 5.771a4.63 4.63 0 001.938 2.258c-9.53 1.221-18.934 3.986-27.132 8.975-1.656 1.007-3.297 2.138-4.525 3.618a290.106 290.106 0 0013.117 9.825c-.612.173-1.224.334-1.844.462h-.004a1098.254 1098.254 0 01-40.748-23.466c-.316-.192-.639-.387-.954-.594-.27-8.465.882-21.223 1.633-28.384.113-.56.218-1.124.323-1.687-.048.007-.097.015-.146.019-1.668.214-3.395.022-5.081-.173a11714.05 11714.05 0 00-16.583-1.928c-.3-.037-.605-.071-.905-.105.792-16.546 9.44-33.156 24.082-40.85 4.747-2.491 9.922-4.001 15.093-5.421a98.13 98.13 0 01-1.074 7.081c-1.998 10.415-6.035 20.473-6.688 31.056-.477 7.71.863 15.4 2.197 23.008.27 1.537.965 3.46 2.527 3.475 1.874.023 2.347-2.581 2.193-4.452-1.213-14.795-2.17-30.229 3.451-43.968a139.782 139.782 0 00-1.652 46.906 1.814 1.814 0 001.998.109c-.77-9.37-1.536-18.864.142-28.11.522 8.581 1.048 17.166 1.57 25.747.086 1.435.248 3.021 1.314 3.983.928.837 2.298.946 3.545.86 6.47-.466 12.055-5.256 14.961-11.053 2.907-5.801 3.523-12.481 3.444-18.969-.079-6.485-.804-12.977-.368-19.451.233-3.482.785-7.074.53-10.516v-.003a6.098 6.098 0 011.487-1.12c1.648 1.954 4.574 2.423 7.04 1.766.883-.233 1.72-.59 2.52-1.022l8.728 1.916c1.844.406 3.74.834 5.453 1.597a11 11 0 012.422 1.442c.473.38.905.801 1.303 1.255 1.089 1.248 1.915 2.735 2.602 4.257 4.315 9.543 3.714 20.468 2.918 30.935z" fill="#003668"/><path d="M86.578 205.997a46.831 46.831 0 0012.72 7.777 22.176 22.176 0 01-10.264 2.938c-3.76.124-7.477-.717-11.135-1.581-22.516-5.324-45.142-11.929-64.576-24.485-2.415-1.559-4.83-3.261-6.459-5.628-2.505-3.633-2.835-8.299-2.862-12.71a134.292 134.292 0 012.716-27.701c5.527.639 11.055 1.282 16.583 1.928 1.686.195 3.414.387 5.08.173-.052.511-.112 1.07-.176 1.668a184.46 184.46 0 01-4.727 18.946c-.534 1.736-1.097 3.588-.59 5.332.526 1.811 2.07 3.062 3.684 4.106.315.207.638.402.954.594 13.414 8.111 27 15.937 40.749 23.466h.003c.62-.128 1.232-.289 1.844-.462 1.867-.533 3.718-1.187 5.644-1.356l.128-.011c1.3-.098 2.606.018 3.913.052 4.92.128 9.786-.924 14.563-2.093.909-.221 1.84-.45 2.768-.323.924.128 1.855.695 2.118 1.593.353 1.214-.594 2.409-1.562 3.216a15.404 15.404 0 01-6.978 3.269c-1.404.259-3.068.492-4.138 1.292z" fill="#E1A897"/><path d="M140.452 184.759c-.121-.008-.241-.008-.365-.008h-.011c-.191 0-.383.004-.574.015-.789-.646-1.672-1.371-2.625-1.942-2.588-1.552-5.671-1.999-8.39-2.273a2.438 2.438 0 00-.244.413c-.454.951-.36 2.209.271 3.735.15.353.311.702.473 1.052.428.924.871 1.878 1.036 2.919.045.289.079.646-.052.98-.098.139-.196.282-.29.429-.232.229-.582.372-1.013.42a3.278 3.278 0 01-.425.027c-2.043 0-3.646-1.736-4.953-3.468-1.713-2.266-3.654-4.832-4.818-7.702-.203-.492-.383-1.003-.56-1.499-.533-1.499-1.036-2.912-2.039-4.013a.376.376 0 01.556-.507c1.104 1.214 1.656 2.765 2.189 4.268.177.489.353.992.549 1.469 1.126 2.78 2.955 5.196 4.72 7.529 1.273 1.68 2.824 3.37 4.69 3.152.188-.022.522-.09.658-.3.108-.177.078-.466.048-.669-.15-.935-.552-1.803-.976-2.716a27.656 27.656 0 01-.484-1.082c-.721-1.732-.808-3.194-.26-4.347.113-.241.252-.458.414-.661.003-.004.003-.008.007-.012.019-.03.045-.06.071-.09.004 0 .004-.004.004-.004.762-.916 1.915-1.461 2.899-1.844a.37.37 0 01.485.21.378.378 0 01-.211.489c-.691.27-1.472.623-2.091 1.134 2.655.29 5.591.797 8.122 2.315 1.007.604 1.923 1.356 2.727 2.021.052.037.105.083.157.128.057.045.109.086.162.131a.376.376 0 01.143.301zM153.366 192.317a2.155 2.155 0 01-1.528 1.214h-.004a6.036 6.036 0 00-.158-.733c.008 0 .011-.004.019-.004.417-.079.815-.394.988-.785.255-.575.161-1.356-.245-2.04-.39-.654-.987-1.18-1.622-1.706a85.835 85.835 0 00-4.638-3.588c-2.572-1.871-5.28-3.678-7.664-5.271a.37.37 0 01-.105-.518.372.372 0 01.518-.106c2.354 1.571 5.013 3.344 7.556 5.189.461-.207.781-.488.957-.838.195-.394.203-.894.015-1.409a2.55 2.55 0 00-.203-.424c-.375-.609-.961-1.067-1.539-1.473a19.078 19.078 0 00-5.69-2.705.375.375 0 01.203-.721 19.67 19.67 0 015.915 2.81c.616.432 1.303.969 1.75 1.698.019.034.037.064.052.098.35-.384.545-.973.474-1.518-.083-.62-.414-1.225-.984-1.8a5.671 5.671 0 00-.549-.484c-1.517-1.176-3.424-1.732-5.272-2.266a.376.376 0 01.21-.721c1.822.529 3.891 1.127 5.521 2.393.244.188.446.368.623.548.691.692 1.093 1.443 1.194 2.232.117.887-.259 1.83-.912 2.356.161.616.116 1.221-.139 1.724-.199.402-.519.733-.95.992a85.856 85.856 0 014.138 3.224c.683.567 1.337 1.142 1.787 1.901.537.901.643 1.923.282 2.731zM97.656 93.624a3.23 3.23 0 01-.875-.146 9.991 9.991 0 01-4.296-2.581.374.374 0 11.533-.526 9.241 9.241 0 003.974 2.385c.356.105.762.188 1.051.03.274-.154.432-.53.556-.916.544-1.676.875-3.423 1.198-5.114l.034-.18c.544-2.9 1.104-5.899 2.628-8.502a.375.375 0 11.65.38c-1.457 2.49-2.005 5.424-2.539 8.26l-.033.181c-.323 1.714-.661 3.483-1.22 5.204-.174.533-.406 1.063-.91 1.341-.24.139-.495.184-.75.184z" fill="#000"/><path d="M78.913 119.57c1.958 0 3.545-1.778 3.545-3.971s-1.587-3.971-3.545-3.971-3.545 1.778-3.545 3.971 1.587 3.971 3.545 3.971zM81.85 133.392a2.858 2.858 0 10-.002-5.717 2.858 2.858 0 00.002 5.717zM77.246 145.606c0 2.382-2.133 4.31-4.765 4.31a5.282 5.282 0 01-1.649-.263c.939-2.683 1.49-5.497 1.788-8.352 2.568.064 4.626 1.968 4.626 4.305zM55.364 191.547c0 .658-.162 1.278-.444 1.83a784.113 784.113 0 01-7.495-4.276c.796-1.044 2.092-1.724 3.552-1.724 2.423 0 4.387 1.867 4.387 4.17zM74.64 167.202a3.336 3.336 0 10-.002-6.674 3.336 3.336 0 00.002 6.674zM31.442 153.376a3.336 3.336 0 10-.002-6.672 3.336 3.336 0 00.002 6.672zM26.951 135.744c1.554 0 2.813-1.426 2.813-3.186s-1.26-3.186-2.813-3.186c-1.553 0-2.812 1.426-2.812 3.186s1.259 3.186 2.812 3.186zM44.988 98.23c-.094.816-.2 1.631-.312 2.446-.507.834-1.36 1.383-2.32 1.383-1.281 0-2.359-.966-2.697-2.288a153.994 153.994 0 015.329-1.54zM62.818 179.664c1.715 0 3.105-1.233 3.105-2.754s-1.39-2.754-3.105-2.754-3.106 1.233-3.106 2.754 1.39 2.754 3.106 2.754zM38.66 182.17c1.267 0 2.295-1.189 2.295-2.656s-1.028-2.657-2.295-2.657-2.294 1.19-2.294 2.657 1.027 2.656 2.294 2.656zM36.756 165.958c1.618 0 2.93-1.223 2.93-2.732 0-1.508-1.312-2.731-2.93-2.731-1.617 0-2.929 1.223-2.929 2.731 0 1.509 1.312 2.732 2.93 2.732zM31.037 172.154c0 1.788-1.438 3.238-3.21 3.238-.46 0-.895-.098-1.289-.27-.023-1.864.015-3.885.09-5.974.372-.15.774-.233 1.198-.233 1.773 0 3.21 1.45 3.21 3.239zM82.627 178.931a79.378 79.378 0 00-3.342.752c-.687-.376-1.254-1.045-1.528-1.897-.522-1.635.229-3.333 1.675-3.799 1.45-.462 3.045.485 3.57 2.119.328 1.022.155 2.07-.375 2.825zM104.329 142.45c1.228 0 2.223-.925 2.223-2.066 0-1.141-.995-2.067-2.223-2.067-1.228 0-2.223.926-2.223 2.067s.995 2.066 2.223 2.066zM101.006 128.305c1.282 0 2.321-1.28 2.321-2.859s-1.039-2.859-2.321-2.859c-1.282 0-2.32 1.28-2.32 2.859s1.038 2.859 2.32 2.859zM42.926 109.832s.004.003 0 .003c-.311 1.319-.65 2.63-.995 3.942-.36.172-.766.266-1.19.266-1.502 0-2.723-1.179-2.723-2.637s1.22-2.641 2.723-2.641c.897 0 1.693.42 2.185 1.067zM13.549 134.286c1.323 0 2.396-1.182 2.396-2.641s-1.073-2.641-2.396-2.641-2.396 1.182-2.396 2.641 1.072 2.641 2.396 2.641zM60.625 169.557c1.224 0 2.215-1.053 2.215-2.352 0-1.298-.992-2.351-2.215-2.351-1.224 0-2.216 1.053-2.216 2.351 0 1.299.992 2.352 2.216 2.352zM48.87 178.458c1.224 0 2.216-1.053 2.216-2.352s-.992-2.352-2.215-2.352c-1.224 0-2.216 1.053-2.216 2.352s.992 2.352 2.216 2.352zM37.338 134.94c-.045.473-.082.95-.112 1.427a53.528 53.528 0 00-.098 3.104c-.154.041-.32.06-.484.06-1.225 0-2.216-1.056-2.216-2.352 0-1.3.991-2.356 2.216-2.356.244 0 .477.042.694.117zM18.54 142.549c1.223 0 2.215-1.053 2.215-2.352s-.992-2.352-2.216-2.352c-1.223 0-2.215 1.053-2.215 2.352s.992 2.352 2.215 2.352zM105.039 114.971a3.352 3.352 0 01-1.908.579c-1.738 0-3.147-1.259-3.147-2.814 0-1.282.962-2.364 2.272-2.698.98 1.187 1.739 2.574 2.377 3.986.143.316.278.631.406.947zM30.552 110.095c1.65 0 2.986-1.319 2.986-2.945 0-1.627-1.337-2.946-2.986-2.946-1.648 0-2.985 1.319-2.985 2.946 0 1.626 1.337 2.945 2.985 2.945zM92.004 121.952c.867 0 1.57-.782 1.57-1.747 0-.965-.703-1.747-1.57-1.747-.867 0-1.57.782-1.57 1.747 0 .965.703 1.747 1.57 1.747zM32.182 121.561a2.098 2.098 0 002.088-2.108 2.097 2.097 0 00-2.088-2.107 2.097 2.097 0 00-2.088 2.107c0 1.164.935 2.108 2.088 2.108zM90.19 111.515c1.264 0 2.288-.9 2.288-2.01 0-1.11-1.024-2.01-2.287-2.01s-2.287.9-2.287 2.01c0 1.11 1.024 2.01 2.287 2.01zM21.052 120.866c1.234 0 2.234-.93 2.234-2.077 0-1.148-1-2.078-2.235-2.078-1.233 0-2.234.93-2.234 2.078 0 1.147 1 2.077 2.235 2.077zM23.47 109.084c0 1.108-1.025 2.01-2.287 2.01-.372 0-.725-.079-1.037-.222a41.49 41.49 0 013.038-2.758c.184.286.286.616.286.97zM96.214 138.716c1 0 1.81-.947 1.81-2.115 0-1.169-.81-2.116-1.81-2.116s-1.81.947-1.81 2.116c0 1.168.81 2.115 1.81 2.115zM83.536 157.978c1.107 0 2.005-1.033 2.005-2.307s-.898-2.307-2.005-2.307c-1.108 0-2.005 1.033-2.005 2.307s.897 2.307 2.005 2.307z" fill="#F7EBE7"/><path d="M91.88 97.403a62.233 62.233 0 01-3.248 2.904c-.034.027-.064.049-.094.076-2.31-1.285-6.163-7.676-4.507-6.308 1.473 1.213 5.49 2.355 7.85 3.328z" fill="#E27356"/><path d="M82.068 80.79a.565.565 0 01-.563-.537.567.567 0 01.533-.59c.015 0 1.134-.079 2.144-1.037a.569.569 0 01.57-.124c.053.019 5.364 1.792 9.49-.496a.564.564 0 01.549.984c-4.01 2.225-8.803 1.052-10.083.677-1.254 1.048-2.554 1.12-2.61 1.123h-.03z" fill="#000"/><path d="M83.63 82.04a.568.568 0 01-.42-.187.568.568 0 01.041-.797c.751-.676 1.896-1.747 2.088-2.02a.561.561 0 01.785-.136c.255.18.315.53.135.785-.334.474-1.938 1.924-2.257 2.21a.535.535 0 01-.372.146zM85.804 82.041a.564.564 0 01-.402-.958c.534-.545 1.157-1.262 1.285-1.518a.562.562 0 011.115-.041c.038.218.101.62-1.596 2.352a.581.581 0 01-.402.165zM87.502 82.398a.562.562 0 01-.436-.92c.567-.695 1.089-1.514 1.115-1.751 0-.312.252-.56.56-.56h.004c.311 0 .563.255.563.567.004.707-.954 1.958-1.367 2.461a.59.59 0 01-.44.203zM89.274 82.398a.565.565 0 01-.376-.984c.282-.252 1.033-1.071 1.154-1.819a.562.562 0 111.112.18c-.207 1.296-1.462 2.431-1.514 2.48a.565.565 0 01-.376.143zM103.631 79.61c-.293 0-.511-.034-.563-.042a.56.56 0 01-.466-.646.56.56 0 01.646-.466c.259.042.879.06 1.149-.135a.56.56 0 01.785.124.56.56 0 01-.124.785c-.428.312-1.003.38-1.427.38z" fill="#000"/><path d="M101.423 74.891a.563.563 0 01-.293-1.044c.041-.027.124-.087.236-.173.89-.658 3.253-2.412 5.089-2.412a.562.562 0 110 1.127c-1.465 0-3.688 1.65-4.42 2.19-.162.12-.274.203-.327.233a.543.543 0 01-.285.079zM83.705 74.591a.564.564 0 01-.266-1.063c.225-.12 5.569-2.893 11.987-.507.293.109.439.432.33.725a.561.561 0 01-.725.33c-5.93-2.2-11.014.422-11.067.448a.487.487 0 01-.259.067z" fill="#A37052"/><path d="M90.19 98.78c-.01 0-.022 0-.037-.005-2.25-.597-4.68-2.739-4.784-2.833a.142.142 0 01-.012-.199.138.138 0 01.2-.01c.026.022 2.485 2.19 4.667 2.768.075.019.12.098.102.173a.148.148 0 01-.136.105zM90.108 145.986a.377.377 0 01-.375-.376c0-.075.003-1.863.33-4.354.32-2.431 0-6.894-.004-6.939a.375.375 0 01.35-.402.375.375 0 01.401.349c.016.188.327 4.584-.003 7.093-.32 2.442-.323 4.242-.323 4.261a.375.375 0 01-.376.368zM28.472 146.605c-.015 0-.03 0-.045-.004a.372.372 0 01-.327-.417c.004-.041.5-4.14.973-6.721.473-2.589 1.949-7.706 2.009-7.923a.376.376 0 01.72.21c-.014.052-1.524 5.297-1.993 7.848-.47 2.559-.962 6.635-.966 6.677a.377.377 0 01-.371.33z" fill="#000"/><path d="M99.12 199.673c-.258.605-.743 1.157-1.254 1.616-2.872.526-3.113.24-3.39-.47-.316-.815-.635-2.761 0-3.039.439-.192 2.309-.669 3.417-.947.36.147.69.364.942.646.192.211.338.462.421.74.143.496.071.988-.135 1.454zM129.235 189.454c-.136.211-.47.279-.658.301-1.866.218-3.417-1.473-4.69-3.152l-.27-.357c.961-.304 2.223-.639 2.861-.5.721.154 1.979 1.755 2.772 2.859.015.061.022.121.033.181.031.203.061.492-.048.668z" fill="#E27356"/></g><defs><filter id="filter0_d" x="53.005" y="20.602" width="230.961" height="215.944" filterUnits="userSpaceOnUse" color-interpolation-filters="sRGB"><feFlood flood-opacity="0" result="BackgroundImageFix"/><feColorMatrix in="SourceAlpha" values="0 0 0 0 0 0 0 0 0 0 0 0 0 0 0 0 0 0 127 0"/><feOffset dy="4"/><feGaussianBlur stdDeviation="2"/><feColorMatrix values="0 0 0 0 0 0 0 0 0 0 0 0 0 0 0 0 0 0 0.1 0"/><feBlend in2="BackgroundImageFix" result="effect1_dropShadow"/><feBlend in="SourceGraphic" in2="effect1_dropShadow" result="shape"/></filter><filter id="filter1_d" x="0" y="30.768" width="157.577" height="193.957" filterUnits="userSpaceOnUse" color-interpolation-filters="sRGB"><feFlood flood-opacity="0" result="BackgroundImageFix"/><feColorMatrix in="SourceAlpha" values="0 0 0 0 0 0 0 0 0 0 0 0 0 0 0 0 0 0 127 0"/><feOffset dy="4"/><feGaussianBlur stdDeviation="2"/><feColorMatrix values="0 0 0 0 0 0 0 0 0 0 0 0 0 0 0 0 0 0 0.1 0"/><feBlend in2="BackgroundImageFix" result="effect1_dropShadow"/><feBlend in="SourceGraphic" in2="effect1_dropShadow" result="shape"/></filter></defs></svg>