<svg fill="none" height="248" viewBox="0 0 248 248" width="248" xmlns="http://www.w3.org/2000/svg" xmlns:xlink="http://www.w3.org/1999/xlink"><mask id="a" height="248" maskUnits="userSpaceOnUse" width="248" x="0" y="0"><path d="m247.5 124c0 68.207-55.293 123.5-123.5 123.5-50.2255 0-81.0562-13.852-99.3501-36.136-18.31068-22.305-24.1499-53.162-24.1499-87.364 0-68.2072 55.2928-123.5 123.5-123.5 51.422 0 82.248 13.8536 100.242 36.1329 18.012 22.3023 23.258 53.1564 23.258 87.3671z" fill="#fafafa" stroke="#eee"/></mask><circle cx="124" cy="124" fill="#fafafa" r="123.5" stroke="#eee"/><g mask="url(#a)"><path d="m100.437 38.5403s-2.2223 1.1831-2.2576 1.4657c-.0618.4945-.1001.9801-.1324 1.4598-.0148.2679-.0295.5298-.0383.7888-.0059.05-.0088.1001-.0088.1501-.0177.3591-.0324.7064-.0471 1.0449-.1531 3.4465-.5122 5.6627-5.8776 3.6113-.056-.0088-.1148-.0147-.1737-.0235-.0765-.0059-.153-.0118-.2325-.0177-.1148-.0088-.2325-.0118-.3561-.0118-.106 0-.212.003-.3091.0059h-.0029c-.0883.0029-.1737.0088-.2561.0177-.0677.0029-.1324.0117-.1972.0206-.0382.0029-.0765.0088-.1118.0147-.0677.0088-.1354.0206-.1972.0353-.1501.0324-.2855.0706-.4062.1177-.0588.0236-.1148.0471-.1677.0766-.053.0264-.1031.0559-.1502.0882-.047.0295-.0912.0648-.1324.1001-.0353.0295-.0677.0618-.0971.0942-.0471.05-.0883.106-.1207.1648-.0177.0206-.0294.0412-.0412.0648-.0118.0206-.0206.0412-.0294.0647-.0148.0265-.0236.053-.0324.0795-.0059.0147-.0118.0324-.0147.05-.0118.0265-.0206.0559-.0265.0854-.0059.0206-.0118.0441-.0147.0677-.0089.0412-.0147.0853-.0177.1324 0 .003-.0029.0088-.0029.0147-.0059.056-.0089.1178-.0089.1796 0 .4003.1148.8888.3297 1.4657.0412.1118.0824.2237.1265.3296.312.8094.6152 1.454.9389 2.0897.0265.0501.0501.1001.0765.1501.0236.0442.0442.0883.0677.1325.2326.4621.4386.8447.5769 1.0919.0118.0206.0206.0412.0324.0618-.4062.053-.9919.0942-1.8366.0971-.0029.003-.0088.003-.0118.003 0 0-.2766-1.1596-.8358-2.2398-.0795-.156-.1648-.309-.2561-.4562 0 0 .3267-1.401.2325-3.5937-.0912-2.1956-.7917-4.2471-.7917-6.9077 0-2.6607.6063-5.3685 3.3612-9.1505.6063-.8329 1.1272-1.6629 1.5687-2.4517.0971-.1707.1884-.3355.2737-.5004.0854-.1559.1648-.3119.2414-.465.0382-.0765.0765-.1471.1118-.2207.0971-.1913.1854-.3797.2708-.5622.0382-.0794.0736-.156.1059-.2295.1737-.3797.3267-.7359.4562-1.0626.053-.1324.103-.256.1472-.3767.0706-.1795.1324-.3473.1884-.5003.0353-.1001.0677-.1943.0971-.2826.0059-.0206.0147-.0412.0206-.0588.0265-.0736.0471-.1413.0677-.2031.0118-.0383.0235-.0766.0353-.1119.0883-.2737.4062-.4032.6534-.259.0942.0559.2001.1236.312.2031.053.0412.1089.0854.1648.1325.0883.0735.1766.153.2678.2413.1619.1619.3267.3532.4857.5798.0294.0353.0529.0706.0765.1089.1265.1854.2472.3944.3591.6269.0382.0765.0765.156.1118.2414.0383.0853.0765.1766.1118.2678.0295.0795.0589.1619.0883.2472.1325.3944.2443.8388.3238 1.3421.0147.0913.0265.1855.0383.2826.0206.1442.0353.2914.05.4444.0353.4121.0677.8065.0942 1.1744.0088.0941.0147.1824.0206.2737v.0176c.0147.209.0294.4091.0412.6005.0176.2648.0324.518.0471.7564.0088.1265.0147.2501.0206.3679.0059.1177.0088.2325.0147.3443-1.3333 1.3539-2.9815 1.6541-2.9991 1.6571-.159.0264-.2679.1795-.2414.3384.0265.1442.1501.2443.2914.2443.0147 0 .0324 0 .05-.0029.0147-.003.0942-.0177.2237-.0501.0147.0059.0294.0118.0471.0206.0265.0118.0559.0236.0883.0324.0265.0088.053.0177.0824.0294.0412.0148.0824.0265.1295.0383.1325.0383.2884.0736.4798.1118.1913.0383.4149.0766.6769.1148.3355.0471.7358.0942 1.2126.1384l.0854.0883.4149.4356.4268.4473.0206.0206 1.6654 1.7454c.171.1795.139.4679-.07.6063z" fill="#e1a897"/><path d="m88.4375 51.6641c.5592 1.0801.8359 2.2398.8359 2.2398h-.2826c.003-.4003-.0588-1.248-.5533-2.2398z" fill="#e1a897"/><path d="m94.7194 24.04s.2031.053.5063.2296c-.2473-.1442-.5651-.0147-.6534.259.1-.3149.1471-.4886.1471-.4886z" fill="#e1a897"/><path d="m95.6973 24.6074c.0856.068.1772.1507.2688.2422-.0916-.0886-.1802-.1683-.2688-.2422z" fill="#e1a897"/><path d="m101.383 58.4834c-3.5787-2.8049-8.7352-4.8857-9.0354-5.0064-.0824-.0353-.1766-.0294-.2531.0147-.0442.0265-.0795.0589-.106.1001-.05.0324-.2472.1354-.8712.2119-.0118-.0206-.0206-.0412-.0324-.0618-.2031-.3856-.3944-.7417-.5769-1.0919-.0235-.0442-.0441-.0883-.0676-.1325-.0265-.05-.0501-.1-.0766-.1501-.3237-.6357-.6269-1.2803-.9389-2.0897-.0441-.1059-.0853-.2178-.1265-.3296-.2149-.5769-.3296-1.0655-.3296-1.4657 0-.0618.0029-.1207.0088-.1796 0-.0059.0029-.0117.0029-.0147.003-.0471.0089-.0912.0177-.1324.0029-.0236.0088-.0471.0147-.0677.0059-.0295.0147-.0589.0265-.0854.0029-.0176.0088-.0353.0147-.05.0088-.0265.0177-.053.0324-.0795.0088-.0235.0176-.0441.0294-.0647.0118-.0236.0236-.0442.0412-.0648.0324-.0588.0736-.1148.1207-.1648.0294-.0324.0618-.0648.0971-.0942.0412-.0353.0854-.0706.1325-.1001.047-.0323.0971-.0618.1501-.0882.0529-.0295.1089-.053.1677-.0766.1207-.0471.2561-.0853.4062-.1177.0647-.0147.1295-.0265.1972-.0353.0353-.0059.0736-.0118.1118-.0147.0648-.0089.1295-.0148.1972-.0206.0824-.0089.1678-.0148.2561-.0177h.0029c.0972-.0029.2031-.0059.3091-.0059.1236 0 .2413.003.3561.0118.0795.0059.156.0118.2325.0176.0589.0089.1177.0148.1737.0236.7475.2855 1.398.4886 1.9631.6151.0029.003.0029.003.0029.003.8977.7888 3.5672 3.1992 4.9388 5.2242.0471.0677.0912.1383.1353.206.053.0854.106.1648.1531.2472.0471.0795.0942.159.1354.2384.2119.3944.412.7653.5945 1.1155.1859.3503.3559.6799.5059.9978.05.1059.1.2089.148.312.047.103.091.203.135.3031s.085.2002.124.2973c.038.0971.076.1942.108.2884.036.0971.068.1913.098.2855.041.1177.073.2355.103.3532.02.0706.038.1383.053.209.041.1707.07.3414.094.5121.009.0706.017.1442.023.2148z" fill="#a37052"/><path d="m102.004 58.9827c-.097-.0825-.194-.1619-.294-.2443-.103-.0854-.209-.1707-.318-.2561-.006-.0706-.015-.1442-.023-.2148-.024-.1708-.053-.3415-.095-.5122-.014-.0706-.032-.1383-.053-.2089-.029-.1178-.061-.2355-.103-.3532-.029-.0942-.061-.1884-.097-.2855-.032-.0942-.07-.1913-.109-.2885-.038-.0971-.079-.1972-.123-.2972-.041-.1001-.088-.2002-.136-.3032-.044-.103-.094-.206-.147-.312-.15-.3178-.321-.6475-.506-.9977-.1824-.3503-.3826-.7211-.5945-1.1155-.0412-.0795-.0883-.1589-.1354-.2384-.0471-.0824-.1-.1619-.153-.2472-.0442-.0677-.0883-.1384-.1354-.206-1.3715-2.025-4.041-4.4355-4.9387-5.2243.1295.0295.2531.053.3738.0766.2472.0441.4768.0735.6916.0853 1.3774 1.2509 3.8085 3.6055 4.8151 5.4744 1.2365 2.2928 2.0925 3.8762 2.0805 5.6687z" fill="#e2bc97"/><path d="m131.631 80.0762-.462 7.2609c-.566.1295-1.184.0206-1.669-.2973-.162-.1059-.318-.2413-.386-.4238-.017-.0441-.029-.0912-.035-.1383-.021-.1384 0-.2826.02-.4238.301-1.9749.981-3.9646.777-5.9277.586.0412 1.169.0353 1.755-.05z" fill="#f7ebe7"/><path d="m90.7114 105.156 16.1696 8.212c.351.179.78.065.998-.268l16.473-25.2969c.251-.3856.112-.9006-.297-1.1096l-16.17-8.2116c-.35-.1795-.78-.0647-.998.2678l-16.4729 25.2973c-.2501.385-.1118.9.2973 1.109z" fill="#00f8f6"/><path d="m221.098 134.759c-.497 1.368-7.529 1.742-9.333 1.677-1.807-.062-1.527-8.026-1.339-13.347.185-5.322.839-25.1001.839-25.1001-.839-1.5746-3.079-9.7215-3.079-9.7215s-2.334 9.8952-2.522 12.7886c-.185 2.896.28 10.457.562 13.256.28 2.802.606 23.151.512 24.647-.094 1.492-2.94 1.492-2.94 1.492l-.374 15.714-.468 28.069s1.31 13.816 1.216 17.271c-.083 3.029-2.322 20.873-2.867 25.197-.068.527-.53.906-1.06.871-.079-.006-.158-.009-.235-.015-3.135-.194-6.449-.12-8.559-.032-.459.018-.859.038-1.189.056-.55.029-1.009-.418-.992-.968.133-4.253.633-20.512.715-26.975.092-7.47.56-12.417-.936-15.59-1.492-3.176-3.172-18.298-4.011-27.26-.842-8.963-3.361-11.764-3.361-11.764s-.28 1.215-1.681 9.898c-1.401 8.679-3.829 17.83-3.92 18.857-.094 1.027-.094 4.011-.374 13.256-.28 9.242.185 18.11-.559 24.27-.748 6.163-1.027 13.862-1.122 14.145-.059.171-.097.43-.715.648-.385.138-1.001.259-1.992.332-2.24.162-6.252-.206-7.676-.521-.209-.047-.362-.091-.445-.132-.653-.327-.747-.468-.562-5.322.188-4.856.748-42.665.653-46.397-.091-3.735-1.212-14.936-1.212-20.537s.279-17.61.279-17.61c-.559-.524-1.306-.968-1.306-.968s0-2.987 0-5.416c0-2.425 3.267-33.7936 3.735-38.5528.465-4.7621.247-12.0437.247-12.0437s-8.962 7.7172-10.766 7.9055c-1.805.1855-20.785 1.1185-22.59 1.1185-1.807 0-1.495-.7476-.809-2.3634.683-1.6188.497-5.6657.497-5.6657s2.117-.3091 3.547-.4356c1.43-.1237 17.053-4.044 18.61-5.601 1.554-1.554 5.568-5.0388 6.69-5.7864 1.118-.7475 5.692-5.6009 6.719-6.737 1.027-1.1331 2.428-4.559 5.322-5.3066 2.896-.7476 12.473-3.217 12.473-3.217.406-.3443 1.039-.7358 1.669-1.0831-.056 1.0037-.121 2.025-.153 2.5135h-.009c-.13 0-.244.0766-.286.1972-.256.7211-.423 1.3951-.518 2.0191-.041.103-.082.2119-.126.3237-.548 1.404-1.272 3.37-1.969 5.6216-.036.1118-.071.2237-.103.3385-.244.7946-.483 1.6246-.71 2.4782-.091.3443-.179.6946-.267 1.0477-.018.0736-.039.1501-.056.2267-.047.1913-.091.3855-.139.5798-.008.0471-.026.0971-.026.1589.003.206-.038.4091-.138.5887-.006.0088-.006.0117-.006.0176-.042.1854-.08.3738-.118.5592-.15.7182-.283 1.4422-.394 2.1662-.036.2267-.068.4533-.1.6799-.577 4.1676-.757 9.954-.727 14.984 0 .156.002.309.002.4621.003.2884.006.5709.009.8505 0 .0442.003.0854.003.1295.003.1884.006.3768.009.5622 0 .053.003.106.003.1589.003.2796.009.5563.018.8271 0 .1354.006.2708.009.4062.005.2472.011.4885.02.724.003.1501.009.3002.015.4444.003.1295.006.2531.012.3767.003.1237.008.2443.014.365.018.4945.039.9624.062 1.4039.006.1089.012.2149.018.3208.006.1119.012.2237.017.3297.006.1089.015.2148.021.3178s.015.2031.021.3032.011.1972.02.2914c.03.3796.059.724.089 1.0242.005.0765.014.1472.023.2178.006.0706.015.1354.024.2001.006.0648.014.1266.023.1855.015.1177.03.2266.047.3208 0 0 1.307-1.2126 3.779-6.7665.618-1.3892 1.301-2.7872 2.005-4.1646.085-.1678.17-.3326.256-.5004.179-.3502.359-.6946.538-1.0389.089-.1708.18-.3385.268-.5092.103-.2002.209-.3974.312-.5946s.206-.3914.309-.5857c.106-.1942.209-.3885.309-.5798.824-1.5452 1.61-3.0168 2.278-4.3589.145-.2825.28-.5621.409-.8329.254-.521.483-1.0154.683-1.4863.062-.1443.124-.2885.18-.4268 1.498-3.6496 4.721-12.5087 4.965-17.7741.009-.2119.015-.418.015-.6152 0-.1736-.003-.3384-.006-.4944-.006-.209-.015-.4032-.024-.5857-.009-.156-.02-.3032-.032-.4415-.032-.3738-.08-.6917-.127-.9654-.02-.1059-.041-.2031-.061-.2972 0 0 0-.003 0-.0059-.009-.0383-.018-.0766-.027-.1148-.003-.0059-.003-.0118-.006-.0147-.02-.0913-.041-.1766-.065-.2532-.044-.1501-.085-.2766-.126-.3885-.121-.3325-.218-.5033-.218-.618 0-.0854.133-.7005.324-1.5747 1.586.6299 4.291 2.0309 4.968 4.4325.915 3.2346-.233 9.0799-.439 10.0747l-2.849 1.245c-.085.0382-.15.1147-.17.2089-.018.0913.006.1884.07.259l1.651 1.8248c-.509 1.3157-4.008 10.0806-8.947 16.4674-4.332 5.6038-9.98 12.1525-12.205 14.7102-.542.6214-.807 1.4124-.748 2.2334.127 1.793.547 7.735.933 13.286-.745 4.592-4.026 12.9-5.61 16.903-.45 1.142-.777 1.969-.9 2.337-.398 1.195-3.079 1.204-4.08 1.11-.162-.015-.306.1-.321.262-.017.161.103.306.265.323.047.003.401.036.898.036 1.236 0 3.349-.203 3.797-1.543.118-.353.441-1.174.889-2.31 1.374-3.479 4.032-10.201 5.209-14.966.23 3.331.427 6.283.515 7.77.033.527.053 1.112.074 1.733.179 5.06.45 12.703 7.093 13.48 2.393.28 5.077.371 7.591.371 4.985 0 9.303-.365 9.368-.371.162-.014.282-.156.268-.318-.015-.161-.156-.285-.318-.267-.097.008-9.763.827-16.841 0-6.14-.719-6.399-8.059-6.573-12.915-.02-.624-.041-1.213-.073-1.746-.247-4.197-1.375-20.075-1.598-23.216-.047-.662.167-1.304.603-1.807 2.231-2.5605 7.888-9.1209 12.229-14.7366 5.38-6.9548 9.062-16.688 9.098-16.7852.041-.103.017-.2207-.056-.3002l-1.498-1.657 2.61-1.1449c.086-.0383.15-.1148.171-.206.062-.2767 1.498-6.8342.462-10.5044-.1-.362-.241-.7005-.412-1.0184 3.661 1.607 16.347 7.3699 16.747 10.2454.465 3.3612 2.146 32.9229 2.146 37.2793 0 4.356-.374 12.261-.436 15.248-.065 2.988 1.057 16.865.556 18.237z" fill="#003668"/><path d="m204.278 140.054c.015.162-.106.303-.267.318-.065.005-4.383.37-9.369.37-2.513 0-5.197-.091-7.59-.37-6.643-.777-6.914-8.421-7.093-13.48-.021-.621-.042-1.207-.074-1.734-.088-1.486-.285-4.438-.515-7.77-1.177 4.765-3.835 11.487-5.21 14.966-.447 1.136-.771 1.957-.888 2.311-.448 1.339-2.561 1.542-3.797 1.542-.498 0-.851-.033-.898-.035-.162-.018-.282-.162-.265-.324.015-.162.159-.277.321-.262 1.001.094 3.682.085 4.079-1.11.124-.368.451-1.195.901-2.337 1.583-4.002 4.865-12.311 5.61-16.903-.386-5.551-.807-11.493-.933-13.285-.059-.821.206-1.613.747-2.2342 2.225-2.5577 7.873-9.1063 12.206-14.7102 4.939-6.3868 8.438-15.1517 8.947-16.4674l-1.651-1.8248c-.065-.0706-.088-.1677-.07-.259.02-.0942.085-.1707.17-.2089l2.849-1.245c.206-.9948 1.354-6.8401.439-10.0747-.677-2.4016-3.382-3.8026-4.968-4.4325-.192.8742-.324 1.4893-.324 1.5746 0 .1148.097.2855.218.6181.041.1119.082.2384.126.3885.024.0766.044.1619.065.2532.003.0029.003.0088.006.0147.009.0382.018.0765.026.1148v.0058c.021.0942.042.1913.062.2973.047.2737.094.5916.127.9654.012.1383.023.2855.032.4415.009.1825.018.3767.024.5857.003.156.006.3208.006.4944 0 .1972-.006.4032-.015.6152-.244 5.2654-3.467 14.1245-4.965 17.7741-.056.1413-.118.2825-.18.4268-.2.4709-.43.9653-.683 1.4863-.129.2708-.265.5504-.409.8329-.668 1.3421-1.454 2.8137-2.278 4.3589-.103.1943-.206.3856-.309.5798-.103.1943-.206.3885-.309.5857s-.209.3944-.312.5946c-.088.1707-.18.3384-.268.5092-.179.3443-.359.6887-.538 1.0389-.086.1678-.171.3326-.256.5004-.704 1.3774-1.387 2.7754-2.005 4.1646-2.472 5.5539-3.779 6.7665-3.779 6.7665-.018-.0942-.032-.2031-.047-.3208-.009-.0589-.018-.1207-.024-.1854-.008-.0648-.017-.1296-.023-.2002-.009-.0706-.018-.1442-.024-.2178-.029-.3002-.059-.6445-.088-1.0242-.006-.0942-.015-.1913-.021-.2914-.005-.1001-.014-.2001-.02-.3032-.006-.1059-.012-.2119-.021-.3178-.006-.106-.012-.2178-.017-.3297-.006-.1059-.012-.2119-.018-.3208-.024-.4415-.044-.9094-.062-1.4039-.006-.1207-.009-.2413-.015-.365-.003-.1236-.008-.2501-.011-.3767-.006-.1442-.012-.2943-.015-.4444-.009-.2355-.015-.4798-.021-.724-.003-.1354-.008-.2708-.008-.4062-.006-.2708-.012-.5474-.018-.8271 0-.0529-.003-.1059-.003-.1589-.003-.1854-.006-.3738-.009-.5622 0-.0441-.003-.0853-.003-.1295-.003-.2796-.006-.5621-.009-.8505 0-.1531-.003-.3061-.003-.4621-.029-5.03.15-10.8164.727-14.984.033-.2266.065-.4532.1-.6799.112-.724.245-1.448.395-2.1662.038-.1883.076-.3738.118-.5592 0-.0059 0-.0088.002-.0147.048-.2207.098-.4415.148-.6593.006-.0324.014-.0618.02-.0912.047-.1943.091-.3885.139-.5798.017-.0766.038-.1531.055-.2267.089-.3532.177-.7034.268-1.0478.227-.8535.465-1.6835.71-2.4781.035-.1119.067-.2267.103-.3385.697-2.2516 1.421-4.2177 1.969-5.6216.044-.1118.085-.2207.126-.3237.094-.624.262-1.298.518-2.0191.041-.1207.156-.1972.286-.1972h.009c.032-.4591.091-1.3892.144-2.3339.003-.0589.006-.1207.009-.1796 1.009-.5621 2.007-1.0213 2.007-1.0213s1.215-2.4252 6.816-.933c.666.1766 1.254.362 1.778.5504 3.888 1.3951 4.112 2.9668 4.112 2.9668s.362.153.983.4267c.171.3179.312.6564.412 1.0184 1.036 3.6702-.4 10.2277-.462 10.5044-.021.0912-.086.1677-.171.206l-2.611 1.1449 1.499 1.657c.073.0795.097.1972.055.3002-.035.0972-3.717 9.8304-9.097 16.7852-4.341 5.6157-9.998 12.1761-12.229 14.7364-.436.504-.651 1.145-.604 1.807.224 3.141 1.351 19.02 1.599 23.217.032.532.053 1.121.073 1.745.174 4.856.433 12.197 6.572 12.915 7.079.827 16.744.009 16.842 0 .161-.018.303.106.317.268z" fill="#003668"/><path d="m197.323 55.7541c.002.156.005.3208.005.4945 0 .1972-.005.4032-.014.6151-.245 5.2654-3.467 14.1245-4.966 17.7741-.055.1413-.117.2826-.179.4268-.2.4709-.43.9654-.683 1.4863-.129.2708-.265.5504-.409.8329-.668 1.3421-1.454 2.8138-2.278 4.3589-.103.1943-.206.3856-.309.5799-.103.1942-.206.3885-.309.5857s-.209.3944-.312.5945c-.088.1707-.18.3385-.268.5092-.179.3443-.359.6887-.539 1.0389-.085.1678-.17.3326-.256.5004-.703 1.3774-1.386 2.7754-2.004 4.1646-2.472 5.5539-3.779 6.7665-3.779 6.7665-.018-.0942-.032-.2031-.047-.3208-.009-.0589-.018-.1207-.024-.1854-.008-.0648-.017-.1295-.023-.2002-.009-.0706-.018-.1442-.024-.2178-.029-.3002-.059-.6445-.088-1.0242-.006-.0942-.015-.1913-.021-.2914s-.014-.2001-.02-.3031c-.006-.106-.012-.212-.021-.3179-.006-.106-.012-.2178-.018-.3296-.005-.106-.011-.212-.017-.3209-.024-.4415-.044-.9094-.062-1.4039-.006-.1207-.009-.2413-.015-.3649-.003-.1236-.009-.2502-.011-.3768-.006-.1442-.012-.2943-.015-.4444-.009-.2355-.015-.4797-.021-.724-.003-.1354-.009-.2708-.009-.4062-.006-.2708-.011-.5474-.017-.827 0-.053-.003-.106-.003-.159-.003-.1854-.006-.3738-.009-.5621 0-.0442-.003-.0854-.003-.1295-.003-.2796-.006-.5622-.009-.8506 0-.1531-.003-.3061-.003-.4621-.029-5.03.15-10.8164.727-14.984.033-.2266.065-.4532.1-.6798.112-.7241.245-1.4481.395-2.1662.038-.1884.076-.3738.117-.5593 0-.0059 0-.0088.006-.0176.103-.1796.142-.3826.139-.5887 0-.0618.017-.1089.026-.1589.047-.1942.091-.3885.138-.5798.018-.0765.039-.1531.056-.2266.089-.3532.177-.7005.268-1.0478.227-.8536.465-1.6835.709-2.4782.036-.1119.068-.2266.104-.3385.697-2.2516 1.421-4.2176 1.969-5.6215.044-.1119.085-.2208.126-.3238.003-.0088.006-.0177.012-.0235.138-.3532.262-.6623.371-.9213.035-.0883.07-.1677.1-.2443.02-.0471.038-.0912.056-.1353.056-.1295.103-.2414.141-.3297.074-.1766.115-.2678.115-.2678s.006-.1089.017-.2943c.033-.4592.092-1.3892.145-2.334.003-.0589.006-.1207.008-.1796.009-.1913.021-.3855.03-.5709.029-.6387.05-1.2244.05-1.6012 0-1.2744-.53-.9006-3.049-.3414-2.523.5592-4.265-.6534-4.762-2.8019-.106-.4592-.203-.9919-.292-1.5452-.029-.1943-.062-.3915-.088-.5887-.271-1.8777-.43-3.7938-.43-3.7938-.791.0942-2.031.2119-2.031-.3973 0-.6063 3.294-8.9827 3.294-12.9296 0 0 .347.0471.653 0 .303-.0441 1.004-.7211 1.937-.9094.933-.1855 1.445.6534 2.613.6534 1.166 0 .957-.8624 2.52-.2796 1.563.5827 5.624.98 5.624 4.5266 0 .3738-.373 3.3376-.303 3.8056.024.156.133.2296.268.262.309.0706.621-.106.765-.3885.306-.5946 1.133-1.6688 1.931-1.6688 1.004 0 1.425.7004 1.425 1.7276 0 1.6335-1.192 3.1758-1.192 3.6408 0 .468 3.005 3.7173 3.005 4.6738 0 .8388-.76 4.3325-1.269 6.6694-.032.1589-.068.3119-.097.4562-.012.0471-.021.0942-.029.1383-.192.8741-.324 1.4893-.324 1.5746 0 .1148.097.2855.218.6181.041.1118.082.2384.126.3885.024.0765.044.1619.065.2531 0 .003.003.0089.003.0147.009.0383.017.0736.029.1148v.0059c.021.0912.041.1913.062.2973.047.2737.094.5916.127.9654.011.1383.023.2854.032.4414.009.1796.018.3738.024.5828z" fill="#f6cabd"/><path d="m111.752 87.8093c-1.975.259-22.7332 2.9698-26.4711 3.058-.4886.0118-.883.0324-1.2126.0471-1.6541.0795-1.6541.0795-4.1676-1.5334-.933-.6004-2.2104-1.4216-4.0293-2.5311-7.5759-4.6268-12.5264-11.7111-13.8626-13.7714-.0912-.1383-.2001-.3002-.3208-.4827-1.3245-1.966-4.4266-6.5722-1.5746-9.7097 2.6665-2.9344 7.67-6.166 9.3005-7.1814.5828.4179 1.3569.7623 2.7578.7623 2.9227 0 .9949 3.3611 6.4722 1.7424 5.4744-1.6188 4.6032 3.9821 6.3485 4.2323 1.7424.2472.4974-1.1214 2.7372-3.3612 1.6276-1.6276 1.8337-2.9903 1.6335-4.5914.0118.003.0236 0 .0353 0 1.8572-.0176 2.6048-.209 2.9109-.3944 1.0183.4239 6.1866 2.6489 9.3657 5.3861v.003c1.056.9065 1.895 1.8719 2.289 2.849 1.652 4.0881 3.209 15.1488 3.373 16.3467l-1.701 2.7254c-8.7912-.1795-17.9976-.4739-18.8335-.83-1.5923-.674-11.6051-8.6737-14.4806-13.0061-.0883-.1354-.2708-.1737-.4062-.0824-.1354.0883-.1737.2708-.0824.4062 2.9167 4.4001 13.115 12.5381 14.7396 13.2239 1.507.6416 22.9891.9536 26.5121 1.0007.31 2.3899-1.012 5.0829-1.333 5.6921z" fill="#7451eb"/><path d="m112.194 88.2267c-.044.0795-.123.1354-.217.1471-.442.0589-5.637.7417-11.376 1.4511-6.2956.774-13.2475 1.5834-15.3077 1.6305-.4798.0118-.8683.0294-1.1979.0471-.3208.0147-.5887.0265-.8241.0265-1.1126 0-1.5246-.2649-3.6879-1.6541-.93-.5975-2.2045-1.4157-4.0175-2.5223-4.4501-2.7166-8.0055-6.2691-10.472-9.1829.0148-.1324.0324-.2649.053-.3973-1.76-2.0986-2.9167-3.8115-3.3847-4.5355-1.1214-1.7248-5.133-6.9549-1.866-10.5485 2.6577-2.9227 7.5405-6.0925 9.2682-7.1756.0795.0647.1619.1295.2502.1913-1.6306 1.0154-6.634 4.247-9.3006 7.1814-2.852 3.1375.2502 7.7437 1.5746 9.7097.1207.1825.2296.3444.3208.4827 1.3363 2.0603 6.2868 9.1446 13.8626 13.7714 1.8189 1.1096 3.0963 1.9307 4.0293 2.5311 2.5135 1.6129 2.5135 1.6129 4.1676 1.5335.3296-.0148.724-.0354 1.2126-.0471 3.7379-.0883 24.4965-2.799 26.4715-3.058.321-.6093 1.642-3.3023 1.333-5.6922-3.523-.0471-25.0055-.3591-26.5124-1.0007-1.6247-.6858-11.8229-8.8238-14.7397-13.2239-.0912-.1354-.053-.3179.0824-.4062.1354-.0912.3179-.053.4062.0824 2.8755 4.3324 12.8884 12.3321 14.4807 13.0061.8358.3561 10.0422.6505 18.8338.83l1.701-2.7254c-.165-1.1979-1.722-12.2585-3.373-16.3467-.365-.9065-1.115-1.8042-2.069-2.6548-.071-.0647-.147-.1295-.221-.1942v-.003c-.091-.0794-.182-.156-.276-.2354-3.1938-2.6283-8.1002-4.7386-9.0891-5.1507-.3061.1855-1.0537.3768-2.9108.3944l-.0589-.2943-.0029-.0147-.053-.2796c.8447-.003 1.4304-.0442 1.8366-.0971.6239-.0766.8211-.1796.8712-.212.0264-.0412.0618-.0735.1059-.1.0765-.0442.1707-.0501.2531-.0147.3002.1206 5.4568 2.2015 9.0359 5.0064.109.0853.215.1707.318.256.1.0825.197.1619.294.2443 1.151.986 2.072 2.0456 2.511 3.1287 1.768 4.3707 3.361 16.0965 3.428 16.5939.009.0677-.005.1383-.044.1972l-1.571 2.5135c2.454.05 4.859.0883 7.022.1148.141.0029.259.1059.286.2443.524 2.9638-1.354 6.3102-1.437 6.4515z" fill="#00eda2"/><path d="m100.617 28.5209c0 3.1463-1.4688 3.573-1.7691 7.5964-.0029.0236-.0029.0471-.0058.0706l-.0206-.0206-.4268-.4473-.415-.4356-.0854-.0883c-.4768-.0442-.877-.0913-1.2126-.1383-.2619-.0383-.4856-.0766-.6769-.1148-.1913-.0383-.3502-.0766-.4798-.1119-.047-.0147-.0912-.0265-.1295-.0382-.0294-.0118-.0559-.0206-.0824-.0295-.0323-.0117-.0618-.0235-.0883-.0323-.0176-.0089-.0323-.0148-.047-.0206-.315-.1384-.2738-.2384-.2738-.2384s.8418-.1443 1.8337-.7182c.1501-.2413.3737-.3973.6239-.412.1707-.1266.3414-.2679.5092-.4239-.0059-.1265-.0118-.256-.0177-.3944-.0029-.1118-.0088-.2266-.0147-.3443s-.0117-.2414-.0206-.3679c-.0235-.4121-.05-.8624-.0883-1.3568v-.0177c-.0059-.0912-.0118-.1795-.0206-.2737-.0265-.3679-.0588-.7623-.0942-1.1744-.0147-.153-.0294-.3002-.05-.4444-.0118-.0971-.0235-.1913-.0383-.2825-.0794-.5033-.1913-.9478-.3237-1.3422-.0295-.0853-.0589-.1677-.0883-.2472-.0353-.0912-.0736-.1825-.1119-.2678-.0353-.0824-.0706-.1648-.1118-.2414-.1118-.2325-.2325-.4414-.3591-.6269-.0235-.0382-.05-.0736-.0765-.1089-.1589-.2266-.3237-.4179-.4856-.5798-.0913-.0883-.1796-.1677-.2679-.2413-.0559-.0501-.1118-.0942-.1648-.1325-.1118-.0794-.2178-.1471-.312-.2031-.2472-.1442-.5651-.0147-.6534.259-.0117.0354-.0235.0736-.0353.1119-.0206.0618-.0441.1295-.0677.2031-.0059.0176-.0147.0382-.0206.0588-.0294.0883-.0618.1825-.0971.2826-.0559.153-.1177.3208-.1884.5003-.0441.1207-.0941.2473-.1471.3768-.1295.3267-.2826.6828-.4562 1.0625-.0353.0735-.0707.153-.106.2295-.0853.1825-.1736.3709-.2708.5622-.0353.0736-.0735.1472-.1118.2207-.0765.1531-.156.3091-.2413.4651-.0883.1648-.1796.3296-.2738.5003-.4414.7888-.9624 1.6188-1.5687 2.4517-2.7549 3.7821-3.3612 6.4898-3.3612 9.1505s.7005 4.7121.7918 6.9077c.0942 2.1927-.2325 3.5937-.2325 3.5937.0912.1472.1765.3002.256.4562.5592 1.0802.8359 2.2398.8359 2.2398.0176.0942.0324.1854.0471.2767 0 .0059.0029.0088.0029.0147.0147.1001.0265.1972.0412.2943.2002 1.6011-.0059 2.9638-1.6335 4.5914-2.2398 2.2398-.9948 3.6084-2.7372 3.3612-1.7453-.2502-.8741-5.8511-6.3485-4.2324-5.4773 1.6188-3.5495-1.7424-6.4721-1.7424-1.401 0-2.1751-.3443-2.7578-.7622-.0883-.0619-.1707-.1266-.2502-.1914-.0824-.0676-.1589-.1324-.2355-.2001-.3973-.3443-.7623-.6887-1.3009-.9006-.9153-.3591-1.7041-.7417-2.0543-1.1361-.1619-.1795-.2326-.362-.1796-.5416 0 0 0 0 0-.0029.0118-.0412.0295-.0824.0559-.1236.0736-.1236.1443-.2531.212-.4121.0147-.0382.0294-.0794.047-.1236.0383-.103.0766-.2178.1119-.3532.0029-.0088.0059-.0206.0088-.0323.1119-.4239.2208-1.0272.3385-1.9838 0-.0176.0029-.0353.0059-.0529.0853-.7123.1736-1.6129.2708-2.7696 0-.0118.0029-.0265.0029-.0412.0942-1.0861.2443-1.9926.4356-2.7578 0-.003 0-.0089.0029-.0118.5887-2.3222 1.5688-3.3818 2.5459-4.4089 1.3068-1.3686.9948-2.6136.9948-4.5414 0-11.3285 8.0291-16.8676 15.0016-16.8676 11.1401 0 15.1843 6.6605 15.1843 10.2689z" fill="#a37052"/><path d="m100.372 31.2641c-.6596 2.8137-1.1865 4.1882-1.5308 4.8534-.0089.0176-.0177.0353-.0265.05l-.4268-.4474c.2973-.6239.7888-1.9278 1.4098-4.5884.3213-1.3628.8063-4.8534-1.5452-7.8172-2.3722-2.9904-6.8135-4.5091-13.2003-4.5091-4.3913 0-7.9644 1.7777-10.6162 5.2831-3.2052 4.2412-4.0352 9.8068-3.5643 11.4786.5946 2.0985-.5886 3.6378-1.6305 4.9946-.4798.6269-.936 1.2185-1.2156 1.8366-.7446 1.6364-.9859 4.2412-1.1773 6.3338-.0441.4798-.0883.936-.1324 1.3539-.2531 2.3369-.8653 3.0286-.933 3.0992-.0589.0589-.1354.0913-.2119.0913-.0736 0-.1472-.0295-.2031-.0854-.1177-.1118-.1207-.2973-.0088-.415 0 0 .0117-.0118.0323-.0412 0 0 0 0 0-.0029.053-.0707.1531-.2384.2679-.5357.0147-.0383.0294-.0795.0471-.1236.0353-.103.0736-.2208.1118-.3532.003-.0088.0059-.0206.0088-.0324.1148-.4061.2267-.9506.3032-1.6629.0118-.103.0235-.2119.0353-.3208 0-.0177.003-.0353.0059-.053.0294-.309.0589-.6357.0912-.9713.053-.5709.1089-1.1802.1796-1.7983 0-.0117.0029-.0265.0029-.0412.103-.93.2384-1.8807.4356-2.7578 0-.0029 0-.0088.003-.0117.156-.7035.3531-1.3598.6063-1.9161.309-.6799.8035-1.3274 1.2862-1.9513 1.0036-1.3098 2.0426-2.6607 1.5304-4.4767-.515-1.8159.2914-7.5376 3.6614-11.9907 2.7313-3.6084 6.5634-5.5185 11.0842-5.5185 6.5751 0 11.1724 1.5923 13.6624 4.7327 2.5104 3.164 1.9954 6.8695 1.6574 8.3146z" fill="#e2bc97"/><path d="m89.4316 50.2773c.2885.7358.6299 1.4717.9389 2.0897-.3237-.6357-.6269-1.2803-.9389-2.0897z" fill="#e1a897"/><path d="m71.4321 240.83c-3.5936-1.271-5.9747-5.009-6.6899-6.263 2.746-.703 6.6222-1.601 8.4824-1.601h2.5988c.1295 4.306-.9183 6.342-1.8719 7.305-.6534.656-1.6452.868-2.5194.559z" fill="#e27356"/><path d="m119.099 238.07c0 1.68-2.863 2.425-4.17 2.425s-7.217.25-9.957-2.861c-2.737-3.114-4.915-3.049-4.915-3.049l-.0622 5.165c-.8741.498-3.4229.498-3.4229.498-.5092-1.828-.3532-6.767-.2796-8.521 3.0315-.438 8.3677-1.639 11.3987-4.821 1.251 5.089 4.927 6.493 6.74 7.741 1.993 1.369 4.668 1.742 4.668 3.423z" fill="#e27356"/><path d="m89.3362 54.18h-.0176c-.0147-.0912-.0295-.1825-.0471-.2767.0029 0 .0088 0 .0118-.0029z" fill="#e1a897"/><path d="m100.603 89.8241c-.045 1.4334-.239 7.6053-.239 10.0187 0 0-6.5338 0-10.0804-.4974s-5.3832-1.2244-9.2123-1.0595c-3.8262.1677-9.3948 2.3661-9.3948 2.3661s-8.0144-11.0251-6.581-22.4831c2.4664 2.9138 6.0218 6.4663 10.472 9.1829 1.813 1.1066 3.0874 1.9249 4.0175 2.5223 2.1632 1.3892 2.5753 1.6541 3.6878 1.6541.2355 0 .5033-.0117.8241-.0265.3297-.0176.7182-.0353 1.1979-.0471 2.0603-.047 9.0122-.8564 15.3082-1.6305z" fill="#7451eb"/><path d="m89.3968 54.4887c-.0117 0-.0235.0029-.0353 0-.0147-.0972-.0265-.1943-.0412-.2944.0059.003.0118.003.0177 0z" fill="#7451eb"/><path d="m59.8973 62.6889c2.6577-2.9227 7.5405-6.0925 9.2682-7.1756-.0825-.0677-.159-.1325-.2355-.2002-1.8071 1.1361-6.6252 4.2913-9.2505 7.1786-3.164 3.4788.1206 8.3528 1.5216 10.4337.1207.1766.2266.3355.3149.4738.571.8801 1.7866 2.6548 3.579 4.771.0147-.1324.0324-.2649.053-.3973-1.7601-2.0985-2.9168-3.8115-3.3847-4.5355-1.1214-1.7248-5.133-6.9549-1.866-10.5485zm29.4439-8.4942-.0029-.0147-.053-.2796c-.0029.0029-.0088.0029-.0118.0029.0177.0942.0324.1855.0471.2767 0 .0059.003.0088.003.0147.0147.1001.0265.1972.0412.2943.0118.003.0235 0 .0353 0z" fill="#00eda2"/><path d="m71.6731 100.948c-.0912 0-.1824-.044-.2384-.12-.0824-.115-8.2498-11.5113-6.581-23.0958.0235-.1619.1737-.2708.3326-.2502.1619.0235.2737.1736.2502.3326-1.5187 10.5455 5.3125 20.9734 6.3455 22.4804 1.0802-.4122 5.8217-2.1516 9.2741-2.3017 2.7049-.1177 4.4296.206 6.4251.5798.8712.1619 1.7718.3326 2.8402.4827 3.061.4297 8.4382.4856 9.7476.4945.015-2.9256.248-9.9599.248-10.0335.005-.1619.147-.2884.303-.2855.162.0059.288.1413.285.3032-.003.0765-.25 7.6082-.25 10.3101 0 .1614-.132.2944-.294.2944-.065 0-6.596-.006-10.122-.5004-1.0802-.1531-1.9867-.3209-2.8638-.4857-1.9601-.3679-3.6554-.6828-6.2926-.571-3.7349.1619-9.2446 2.3221-9.3006 2.3461-.0353.014-.0735.02-.1089.02z" fill="#00eda2"/><path d="m97.8905 35.197c-.4768-.0441-.8771-.0912-1.2126-.1383-.2619-.0383-.4856-.0766-.6769-.1148-.1913-.0383-.3503-.0765-.4798-.1119-.0471-.0147-.0912-.0264-.1295-.0382-.0294-.0118-.0559-.0206-.0824-.0295-.0324-.0117-.0618-.0235-.0883-.0323-.0176-.0089-.0323-.0147-.0471-.0206-.3149-.1384-.2737-.2384-.2737-.2384s.8418-.1442 1.8336-.7182c.1501-.2413.3738-.3973.624-.412.1707-.1266.3414-.2679.5092-.4239.0088.2237.0147.4327.0206.6211.0294 1.1272.0029 1.657.0029 1.657z" fill="#e1a897"/><path d="m96.5454 34.4573c0 .2208.0471.4268.1325.6005-1.9043-.2738-1.7777-.5857-1.7777-.5857s.8417-.1443 1.8336-.7182c-.1177.1913-.1884.4356-.1884.7034z" fill="#f7ebe7"/><path d="m97.89 35.197c-.4768-.0441-.8771-.0912-1.2126-.1383-.0854-.1737-.1325-.3797-.1325-.6004 0-.2679.0707-.5122.1884-.7035l.624-.412c.1707-.1266.3414-.2679.5091-.4239.0089.2237.0148.4327.0206.6211.0295 1.1272.003 1.657.003 1.657z" fill="#003668"/><path d="m94.2891 32.7243c-.0766 0-.156-.0236-.2208-.0736-.1619-.1207-.1942-.3503-.0736-.5121.056-.0736 1.3716-1.7895 4.5032-.9213.1972.053.312.2561.256.4533-.0529.1972-.256.312-.4532.256-2.6224-.724-3.6732.5975-3.7173.6534-.0736.0942-.1825.1443-.2943.1443z" fill="#a37052"/><path d="m94.898 34.7636c-.1413 0-.2649-.1-.2885-.2443-.0265-.1589.0795-.3119.2414-.3384.0206-.003 1.9543-.3562 3.3258-2.0191.103-.1265.2884-.1442.415-.0412s.1442.2884.0412.415c-1.5158 1.8366-3.5937 2.2104-3.682 2.2251-.0206.0029-.0382.0029-.0529.0029z" fill="#000"/><path d="m69.9974 55.2659c-.1618 0-.2943-.1324-.2943-.2943 0-1.4863 1.0625-3.3582 2.0897-5.1654.6328-1.1125 1.2862-2.2633 1.6629-3.2787.4768-1.2833.4474-3.6055.418-6.0631-.0324-2.4929-.0648-5.0741.4473-6.7959.5092-1.7159 1.8072-3.1433 3.061-4.5237 1.295-1.4216 2.5164-2.7666 2.9079-4.3677.0382-.159.1972-.2561.3561-.2149.159.0383.2531.1972.2149.3561-.4297 1.7483-1.7601 3.2111-3.0463 4.6238-1.2096 1.3304-2.4634 2.7049-2.9343 4.2942-.4857 1.6394-.4533 4.1735-.4239 6.6223.0324 2.5135.0618 4.8886-.4532 6.2749-.3944 1.0596-1.0596 2.231-1.7042 3.3641-.9889 1.7424-2.0131 3.5407-2.0131 4.874.0059.1619-.1236.2943-.2885.2943z" fill="#e2bc97"/><path d="m75.2842 58.1916c-.1589 0-.2884-.1265-.2943-.2854-.1383-4.6768.6829-5.9689 1.5511-7.3404.3238-.5092.6299-.9919.8947-1.6747.7211-1.8454.212-4.1529-.1971-6.0072-.1325-.5945-.2561-1.1566-.3179-1.6276-.1295-.9742-.0854-2.8696.3237-4.7297.3473-1.5864 1.0773-3.6408 2.5724-4.409 1.8837-.9653 3.1463-2.3163 5.2419-4.5561.6799-.7269 1.451-1.551 2.3516-2.4811.1119-.1177.3002-.1207.415-.0059.1178.1119.1207.3002.0059.415-.9006.9271-1.6688 1.7483-2.3457 2.4723-2.1398 2.2869-3.4289 3.6673-5.4038 4.6797-2.2957 1.1773-2.849 6.5163-2.5812 8.5354.0589.4444.1795.9948.309 1.5775.4268 1.9308.9566 4.3354.1707 6.3486-.2855.7358-.621 1.2626-.9477 1.7747-.8182 1.2921-1.5923 2.5135-1.4598 7.0078.0059.1619-.1236.2973-.2855.3032.0029.0029 0 .0029-.003.0029z" fill="#e2bc97"/><path d="m86.0294 62.3603c-.0324 0-.0647-.0059-.0971-.0177-.1531-.0529-.2355-.2207-.1825-.3737.4533-1.3098.8859-1.7954 1.3833-2.3576.3915-.4414.833-.9389 1.3804-1.9896 1.0802-2.0661.5975-3.3582.0412-4.8534-.05-.1353-.1001-.2707-.1501-.4061-.6328-1.7453-.5975-2.9374-.2914-4.7975.1854-1.1243-.0265-2.0808-.2943-3.2905-.1619-.7299-.3444-1.5599-.4709-2.5635-.2826-2.2722-.315-5.7099 2.6783-9.3095 1.4569-1.7541 2.6018-4.0027 3.3406-5.6804-1.5747 1.9484-3.0992 2.799-4.9152 3.8086-1.1273.6269-2.4046 1.3362-3.8527 2.4311-4.3413 3.2728-3.8438 5.9041-2.8873 8.5324.8741 2.3987 2.075 6.7576.3296 8.9945-1.6158 2.069-2.0896 4.8386-1.2037 7.0519.0618.1501-.0118.3208-.1649.3826-.1501.0589-.3208-.0117-.3826-.1648-.9624-2.4046-.4562-5.4038 1.2862-7.6347 1.6306-2.0897.2502-6.5928-.4179-8.4323-.9507-2.6107-1.5717-5.6893 3.0874-9.2035 1.4834-1.1184 2.7784-1.8395 3.9233-2.4752 2.2987-1.2774 4.1147-2.2899 6.1749-5.754.0765-.1295.2384-.1796.3738-.1178s.2031.2178.156.3591c-.0677.2031-1.6718 4.9946-4.3942 8.2763-2.8461 3.4259-2.8167 6.6959-2.5459 8.8591.1206.9772.3002 1.7895.4591 2.5106.2708 1.2214.5033 2.2751.3002 3.5113-.2884 1.7541-.3237 2.8755.2649 4.5002.05.1353.0971.2678.1472.4032.5562 1.4922 1.1302 3.0344-.0707 5.3331-.5827 1.1155-1.0507 1.6423-1.4627 2.1073-.4739.5357-.8506.9595-1.2656 2.1604-.0383.1236-.1531.2001-.2767.2001z" fill="#e2bc97"/><path d="m83.9364 58.6896c-.1442 0-.2708-.1089-.2914-.2561-.103-.7711.1001-1.4804.6416-3.3729.1678-.5887.3709-1.295.6093-2.1603.8535-3.0904.2472-4.9741-.2384-6.4898-.0707-.2149-.1354-.4268-.1972-.6299-.5122-1.7306-.3385-4.5061.4385-6.9019.05-.1559.2149-.2384.3709-.1883.1559.05.2383.2148.1883.3708-.7299 2.2575-.9094 4.9505-.4326 6.5516.0588.2002.1265.4062.1942.6181.5092 1.5894 1.142 3.5672.2443 6.8253-.2384.8654-.4415 1.5747-.6122 2.1663-.518 1.8071-.7122 2.484-.624 3.1315.0207.1619-.0912.3091-.2531.3297-.0117.0059-.0265.0059-.0382.0059z" fill="#e2bc97"/><path d="m181.314 55.5749c-3.029 3.0786-4.286 5.2212-4.189 5.9776.024.1972.136.2914.201.3297.197.1207.856.5621 1.283.8535l-2.216 1.3186c-.083.05-.139.1383-.142.2354-.009.1089-.644 11.0195.468 19.6284 1.107 8.5883 1.952 13.7743 1.96 13.8272.024.1443.151.2443.292.2443.015 0 .032 0 .047-.0029.162-.0265.271-.1766.244-.3385-.009-.05-.853-5.2301-1.96-13.8066-1.03-7.9938-.547-18.0008-.474-19.3606l2.481-1.4774c.086-.0501.139-.1413.142-.2443.003-.1001-.045-.1943-.127-.2502-.053-.0353-1.204-.8212-1.616-1.0802.033-.3738.739-2.0985 4.024-5.442 1.93-1.9631 3.564-3.267 4.65-4.0469.012-.2502.026-.5063.038-.7505-1.089.7505-2.896 2.1367-5.106 4.3854z" fill="#808080"/><path d="m204.278 140.055c.015.162-.106.303-.267.318-.065.006-4.383.371-9.369.371-2.513 0-5.197-.091-7.59-.371-6.643-.777-6.914-8.42-7.093-13.48-.021-.621-.042-1.207-.074-1.733-.088-1.487-.285-4.439-.515-7.771-1.177 4.766-3.835 11.488-5.21 14.967-.447 1.136-.771 1.957-.888 2.31-.448 1.339-2.561 1.542-3.797 1.542-.498 0-.851-.032-.898-.035-.162-.018-.282-.162-.265-.324.015-.162.159-.276.321-.262 1.001.095 3.682.086 4.079-1.109.124-.368.451-1.195.901-2.337 1.583-4.003 4.865-12.312 5.61-16.903-.386-5.551-.807-11.493-.933-13.286-.059-.821.206-1.613.747-2.2337 2.225-2.5576 7.873-9.1063 12.206-14.7102 4.939-6.3868 8.438-15.1517 8.947-16.4673l-1.651-1.8248c-.065-.0706-.088-.1678-.07-.259.02-.0942.085-.1707.17-.209l2.849-1.245c.206-.9948 1.354-6.84.439-10.0746-.677-2.4017-3.382-3.8026-4.968-4.4325.008-.0441.017-.0912.029-.1383.03-.1442.065-.2973.097-.4562 1.448.5592 3.876 1.763 4.998 3.8497.171.3179.312.6563.412 1.0184 1.036 3.6702-.4 10.2277-.462 10.5043-.021.0913-.086.1678-.171.206l-2.611 1.145 1.499 1.657c.073.0795.097.1972.055.3002-.035.0971-3.717 9.8304-9.097 16.7852-4.341 5.6157-9.998 12.1761-12.229 14.7368-.436.503-.651 1.145-.604 1.807.224 3.14 1.351 19.019 1.599 23.216.032.533.053 1.122.073 1.746.174 4.856.433 12.196 6.572 12.914 7.079.827 16.744.009 16.842 0 .161-.017.303.106.317.268z" fill="#808080"/><path d="m197.329 56.249c0 .1972-.006.4032-.014.6151-.245 5.2654-3.468 14.1245-4.966 17.7741-.056.1413-.117.2826-.179.4268-.2.4709-.43.9654-.683 1.4863-.13.2708-.265.5504-.409.8329-.668 1.3422-1.454 2.8138-2.278 4.359-.103.1942-.206.3855-.309.5798-.103.1942-.206.3885-.309.5857s-.209.3944-.312.5945c-.091.1678-.18.3385-.268.5092-.18.3443-.359.6887-.539 1.0389-.085.1649-.17.3326-.256.5004-.703 1.3774-1.386 2.7754-2.004 4.1646-2.472 5.5539-3.779 6.7665-3.779 6.7665-.018-.0942-.033-.2031-.047-.3208-.009-.0589-.018-.1207-.024-.1854-.009-.0648-.017-.1295-.023-.2002-.009-.0706-.018-.1442-.024-.2178-.029-.3002-.059-.6445-.088-1.0242-.006-.0942-.015-.1913-.021-.2914s-.015-.2001-.02-.3031c-.006-.106-.012-.2119-.021-.3179-.006-.106-.012-.2178-.018-.3296-.006-.106-.011-.212-.017-.3209-.024-.4414-.044-.9094-.062-1.4039-.006-.1206-.009-.2413-.015-.3649-.003-.1236-.009-.2502-.012-.3768-.006-.1442-.011-.2943-.014-.4444-.009-.2354-.015-.4797-.021-.724-.003-.1354-.009-.2708-.009-.4062-.006-.2708-.012-.5474-.017-.827 0-.053-.003-.106-.003-.159-.003-.1854-.006-.3738-.009-.5621 0-.0442-.003-.0854-.003-.1295-.003-.2796-.006-.5622-.009-.8506 0-.1531-.003-.3061-.003-.4621-.029-5.03.15-10.8163.727-14.9839.032-.2267.065-.4533.1-.6799.112-.7241.244-1.4481.395-2.1662.038-.1884.076-.3738.117-.5593 0-.0058 0-.0088.003-.0147.047-.2207.097-.4414.147-.6592.006-.0324.015-.0619.021-.0913.047-.1942.091-.3885.138-.5798.018-.0765.039-.1531.056-.2266.088-.3532.177-.7035.268-1.0478.227-.8536.465-1.6835.709-2.4782.036-.1119.068-.2266.103-.3385.698-2.2516 1.422-4.2176 1.969-5.6215.045-.1089.086-.2149.127-.315.003-.0117.006-.0235.012-.0323.138-.3532.262-.6623.371-.9213.035-.0883.07-.1677.1-.2443.02-.047.038-.0912.056-.1353.055-.1295.103-.2414.141-.3297.683 1.1332 1.851 2.9138 3.014 3.9027.132.1148.267.2178.4.3091l.165-.1325.065-.05.185-.1501 7.049-5.6392c.023.0765.044.1619.065.2531.003.0029.003.0088.006.0147.008.0383.017.0765.026.1148v.0059c.021.0942.041.1913.062.2972.047.2738.094.5916.126.9654.012.1384.024.2855.033.4415.009.1825.017.3767.023.5857.003.156.006.3208.006.4945z" fill="#f6cabd"/><path d="m197.329 56.249c0 .1972-.006.4032-.014.6151-.245 5.2654-3.468 14.1245-4.966 17.7741-.056.1413-.117.2826-.179.4268-.2.4709-.43.9654-.683 1.4863-.13.2708-.265.5504-.409.8329-.668 1.3422-1.454 2.8138-2.278 4.359-.103.1942-.206.3855-.309.5798-.103.1942-.206.3885-.309.5857s-.209.3944-.312.5945c-.091.1678-.18.3385-.268.5092-.18.3443-.359.6887-.539 1.0389-.085.1649-.17.3326-.256.5004-.703 1.3774-1.386 2.7754-2.004 4.1646-2.472 5.5539-3.779 6.7665-3.779 6.7665-.018-.0942-.033-.2031-.047-.3208-.009-.0589-.018-.1207-.024-.1854-.009-.0648-.017-.1295-.023-.2002-.009-.0706-.018-.1442-.024-.2178-.029-.3002-.059-.6445-.088-1.0242-.006-.0942-.015-.1913-.021-.2914s-.015-.2001-.02-.3031c-.006-.106-.012-.2119-.021-.3179-.006-.106-.012-.2178-.018-.3296-.006-.106-.011-.212-.017-.3209-.024-.4414-.044-.9094-.062-1.4039-.006-.1206-.009-.2413-.015-.3649-.003-.1236-.009-.2502-.012-.3768-.006-.1442-.011-.2943-.014-.4444-.009-.2354-.015-.4797-.021-.724-.003-.1354-.009-.2708-.009-.4062-.006-.2708-.012-.5474-.017-.827 0-.053-.003-.106-.003-.159-.003-.1854-.006-.3738-.009-.5621 0-.0442-.003-.0854-.003-.1295-.003-.2796-.006-.5622-.009-.8506 0-.1531-.003-.3061-.003-.4621-.029-5.03.15-10.8163.727-14.9839.032-.2267.065-.4533.1-.6799.112-.7241.244-1.4481.395-2.1662.038-.1884.076-.3738.117-.5593 0-.0058 0-.0088.003-.0147.047-.2207.097-.4414.147-.6592.006-.0324.015-.0619.021-.0913.047-.1942.091-.3885.138-.5798.018-.0765.039-.1531.056-.2266.088-.3532.177-.7035.268-1.0478.227-.8536.465-1.6835.709-2.4782.036-.1119.068-.2266.103-.3385.698-2.2516 1.422-4.2176 1.969-5.6215.045-.1089.086-.2149.127-.315.003-.0117.006-.0235.012-.0323.138-.3532.262-.6623.371-.9213.035-.0883.07-.1677.1-.2443.02-.047.038-.0912.056-.1353.055-.1295.103-.2414.141-.3297.683 1.1332 1.851 2.9138 3.014 3.9027.132.1148.267.2178.4.3091l.165-.1325.065-.05.185-.1501 7.049-5.6392c.023.0765.044.1619.065.2531.003.0029.003.0088.006.0147.008.0383.017.0765.026.1148v.0059c.021.0942.041.1913.062.2972.047.2738.094.5916.126.9654.012.1384.024.2855.033.4415.009.1825.017.3767.023.5857.003.156.006.3208.006.4945z" fill="#fff"/><path d="m190.984 60.5112s0 .1972-.03.4915c-.059.5651-.227 1.4863-.718 2.0603-.745.8712-1.307 1.3067-1.307 1.3067l-.744 18.5394c-.103.1972-.209.3944-.312.5945-.092.1678-.18.3385-.268.5092-.18.3444-.359.6887-.539 1.039-.085.1648-.171.3326-.256.5003-.703 1.3774-1.386 2.7755-2.004 4.1647-2.473 5.5538-3.779 6.7664-3.779 6.7664-.018-.0941-.033-.203-.047-.3208-.009-.0588-.018-.1206-.024-.1854-.009-.0647-.018-.1295-.024-.2001-.008-.0707-.017-.1442-.023-.2178-.03-.3002-.059-.6446-.088-1.0243-.006-.0941-.015-.1913-.021-.2913-.006-.1001-.015-.2002-.021-.3032-.006-.106-.011-.2119-.02-.3179-.006-.1059-.012-.2178-.018-.3296-.006-.106-.012-.2119-.018-.3208-.023-.4415-.044-.9095-.061-1.4039-.006-.1207-.009-.2414-.015-.365-.003-.1236-.009-.2502-.012-.3767-.006-.1442-.012-.2943-.015-.4445-.008-.2354-.014-.4797-.02-.724-.003-.1354-.009-.2708-.009-.4061-.006-.2708-.012-.5475-.018-.8271 0-.053-.003-.106-.003-.1589-.003-.1855-.005-.3738-.008-.5622 0-.0441-.003-.0853-.003-.1295-.003-.2796-.006-.5621-.009-.8506 0-.153-.003-.3061-.003-.4621l7.635-22.2654-1.092-1.8543-.668-1.1331.191-.1619c.106.2119.209.3826.297.5151.556-.833 1.592-1.8042 2.11-2.2663-.058-.0383-.117-.0795-.176-.1236l.276-.2325c.133.1147.268.2178.401.309l.165-.1324.064-.0501.186-.1501z" fill="#00eea2"/><path d="m189.746 58.8658c-.006-.0088-.012-.0176-.024-.0235-.017-.0236-.041-.0412-.067-.053-2.196-1.1714-3.147-4.2735-3.156-4.3059-.038-.1177-.141-.2031-.264-.209h-.009c-.13 0-.245.0765-.286.1972-.256.7211-.424 1.3951-.518 2.0191v.0088c-.535 3.5554 1.21 5.4979 1.298 5.5921.056.0618.136.0942.218.0942.015 0 .029 0 .044-.003.035-.0058.071-.0176.103-.0412.05-.0264.091-.0706.118-.1236.497-1.0389 2.484-2.7283 2.505-2.746.014-.0118.029-.0265.041-.0412.047-.0618.067-.1383.059-.2149-.006-.0559-.027-.1089-.062-.1501zm-2.84 2.4959c-.089-.1325-.192-.3032-.298-.5151-.497-.983-1.062-2.8049-.368-5.3714.407.9595 1.234 2.5283 2.599 3.4966.059.0441.118.0854.177.1236-.518.4621-1.554 1.4334-2.11 2.2663z" fill="#d9d9d9"/><path d="m197.32 55.7543c-.845 1.3451-3.073 4.7769-4.93 6.531-.371-.6592-1.251-2.1721-2.028-3.214 1.328-1.0507 5.345-4.2735 6.684-5.7275h.003c-.003-.0058-.003-.0117-.005-.0147-.021-.0912-.042-.1766-.065-.2531-.044-.1501-.086-.2767-.127-.3885-.547.7535-3.914 3.5996-7.081 6.1013-.021.0147-.038.0324-.05.053-.018.0235-.033.0471-.041.0736-.036.0912-.024.203.044.2854.009.0089.014.0177.023.0295.383.4944.816 1.1508 1.201 1.7718.609.983 1.101 1.8778 1.11 1.8925.044.0765.117.1295.206.1472.017.0029.035.0029.053.0029.07 0 .138-.0235.191-.0706 1.686-1.4687 3.688-4.3854 4.803-6.1102.009-.2119.015-.4179.015-.6151 0-.1737-.003-.3385-.006-.4945z" fill="#d9d9d9"/><path d="m201.899 239.052c-.91 1.555-2.487 2.685-4.233 3.126-1.745.442-3.64.209-5.262-.571-.648-.309-1.269-.718-1.666-1.312-.612-.922-.583-2.131-.35-3.214.232-1.084.644-2.131.733-3.235.088-1.145-.177-2.287-.253-3.432-.065-.995.044-2.069.585-2.887 2.111-.088 5.425-.162 8.559.032-.294 1.825-.138 3.735.73 5.348.615 1.142 1.584 2.146 1.784 3.426.147.939-.15 1.901-.627 2.719z" fill="#a37052"/><path d="m174.858 238.939-.109.153c-2.652.465-5.345.692-8.038.674-.17 0-.353-.006-.491-.109-.124-.088-.186-.238-.242-.38-.162-.403-.323-.806-.482-1.209-.898.941-2.181 1.439-3.465 1.651-1.286.209-2.595.162-3.896.179-4.333.059-8.709.842-12.965.041-.239-.044-.489-.103-.651-.279-.256-.28-.176-.721-.041-1.074.45-1.186 1.354-2.152 2.369-2.911 4.295-3.214 10.437-3.044 14.702-6.296 1.109-.847 2.116-2.119 2.087-3.467 1.424.315 5.436.683 7.675.521.992-.074 1.607-.194 1.993-.333-.077 1.187-.097 2.387.274 3.509.235.715.618 1.374.847 2.089.277.872.312 1.796.342 2.708.047 1.513.076 3.023.091 4.533z" fill="#a37052"/><path d="m180.622 32.6856c-.112 0-.22-.0647-.268-.1736-.067-.1472 0-.3238.148-.3885 1.648-.7447 3.561-.8006 5.247-.156.153.0588.227.2295.171.3796-.059.1531-.229.2267-.38.1708-1.542-.5916-3.29-.5387-4.794.1412-.041.0177-.082.0265-.124.0265z" fill="#000"/><path d="m185.396 35.5257c-.662.7064-1.657 1.0772-2.622 1.0213-.35-.0206-.701-.0942-1.024-.2325-.518-.2178-1.183-.674-1.637-1.0596-.05-.0441-.053-.1236-.003-.1707.73-.6857 1.672-1.1773 2.667-1.2243.035-.003.068-.0059.103-.0059 1.009-.0177 2.048.4827 2.555 1.345.061.103.044.2384-.039.3267z" fill="#f7ebe7"/><path d="m181.869 42.8693c-.983.9478-2.196 1.6482-3.505 2.0309-.03-.1943-.062-.3915-.089-.5887 1.189-.3591 2.29-1.0036 3.188-1.866.115-.1148.303-.1089.415.0059.112.1177.109.3031-.009.4179z" fill="#e27356"/><path d="m182.968 35.1966c0 .4856-.07.9477-.194 1.3509-.35-.0206-.701-.0942-1.024-.2325-.518-.2178-1.183-.674-1.637-1.0596-.05-.0441-.053-.1236-.003-.1707.73-.6857 1.672-1.1773 2.667-1.2243.123.4002.191.8564.191 1.3362z" fill="#000"/><path d="m241.989 159.625c-.227-1.913-.421-3.862-1.23-5.607-1.016-2.184-2.717-3.971-4.506-5.583-.247-.221-.506-.445-.824-.539-.33-.1-.68-.044-1.019.015-3.449.594-6.743 1.274-10.113 2.225-.444-1.425-.83-2.646-1.63-3.906-.801-1.26-2.004-2.334-3.464-2.649-.745-.162-1.522-.12-2.272.009-2.299.4-4.442 1.639-5.937 3.432-1.492 1.792-2.322 4.244-2.296 6.575-2.21.618-5.1 1.43-7.311 2.046-.9.253-1.819.512-2.593 1.036-1.15.78-1.869 2.077-2.219 3.425-.347 1.346-.362 2.752-.368 4.142-.023 6.442.142 12.885.492 19.319.012.188.023.385.129.544.103.156.28.245.448.327 1.574.771 2.987 2.066 4.724 2.316 1.98.286 7.396-1.83 12.249-2.578 4.857-.747 13.133-3.485 16.432-4.356 3.297-.871 10.578-2.49 10.89-3.858.312-1.369-.247-6.102-.123-7.314 1.927-.748.933-5.695.541-9.021zm-30.93-6.537c-.041-.848.191-1.681.444-2.49.342-1.086.777-2.237 1.719-2.873.471-.315 1.027-.474 1.575-.63 1.059-.297 2.163-.6 3.249-.409.533.092 1.039.301 1.536.512.351.145.704.298.992.542.289.241.495.565.674.895.389.724.66 1.165.751 1.983z" fill="#e2bc97"/><path d="m203.433 177.662c-.612 0-1.113-.056-1.469-.18-1.783-.624-1.636-3.805-1.468-7.487.094-2.04.191-4.147-.036-5.948-.5-3.985-1.186-4.486-1.271-4.533-.135-.003-.253-.097-.283-.235-.032-.159.071-.315.23-.348.059-.011.218-.023.415.118.639.459 1.139 2.116 1.492 4.927.23 1.851.133 3.985.038 6.048-.153 3.306-.294 6.425 1.075 6.905 1.948.683 9.321-1.059 14.201-2.21 1.153-.271 2.239-.53 3.125-.724 4.969-1.098 19.982-4.892 21.866-5.622.153-.059.32.018.379.168s-.017.321-.167.38c-1.899.735-16.971 4.544-21.951 5.645-.883.194-1.969.45-3.12.724-4.35 1.027-10.045 2.372-13.056 2.372z" fill="#a37052"/><path d="m220.985 143.101c-.033 1.127-.256 2.239-.698 3.275-.176.412-.397.848-.777 1.101-.329.221-.803.265-1.109.015-.174.477-.827.7-1.257.43-.274.279-.571.571-.954.653-.382.079-.856-.168-.856-.559-.212.747-1.124 1.127-1.887.971-.435-.088-.874-.353-1.006-.777-.103-.324-.015-.671.064-1.004.307-1.271.46-2.581.454-3.888 0-.173-.23-.244-.324-.1-.674 1.039-.857 2.364-1.357 3.517-.082.189-.185.389-.374.474-.209.092-.462.009-.627-.15-.161-.159-.25-.379-.314-.597-.327-1.089-.301-2.258.064-3.335.604-1.789 1.392-3.517 2.34-5.151 2.343-.035 4.68-.518 6.849-1.412.394-.162.809-.365 1.077-.683.342.683.556 1.439.674 2.196.253 1.659.068 3.361.018 5.024z" fill="#f6cabd"/><path d="m220.572 135.26c-.012.091-.035.182-.067.271-.05.132-.124.247-.212.35-.268.318-.683.521-1.078.683-2.169.894-4.506 1.377-6.848 1.412h-.024c-.059 0-.121 0-.177-.026-.076-.041-.114-.124-.15-.203-.176-.424-.297-.871-.356-1.325.035.009.071.015.109.015.759.027 2.44-.023 4.174-.191 1.542-.153 3.125-.398 4.129-.765.188-.068.356-.142.5-.221z" fill="#f7ebe7"/><path d="m100.905 62.0395c-.698.9447-.9273 2.0955-.689 3.2404.077.3709.645.2149.568-.156-.209-1.0006.027-1.969.63-2.7872.224-.3061-.288-.6004-.509-.2972z" fill="#e27356"/><path d="m90.9605 65.1847c.3297 1.0448.3356 2.0867.0148 3.1345-.1119.362.4562.518.568.156.3502-1.139.3444-2.3134-.0147-3.4465-.1148-.3591-.6828-.206-.5681.156z" fill="#e27356"/><path d="m94.2006 75.4009c-.1766 1.1625.2943 2.2692 1.2685 2.9314.3149.2119.6092-.2972.2973-.5092-.7388-.5003-1.1332-1.3803-1.0007-2.2662.0588-.3709-.5063-.5298-.5651-.156z" fill="#e27356"/><path d="m88.7098 74.9837c-.9566.468-1.6453 1.3421-1.8866 2.3782-.0854.3679.4826.5268.568.156.209-.9007.7829-1.6218 1.6158-2.0279.3385-.1649.0412-.6711-.2972-.5063z" fill="#e27356"/><path d="m93.2617 97.5843c.3532-.93.3944-1.9101.1354-2.8696-.0971-.365-.6651-.209-.568.156.2325.8653.1825 1.7188-.1354 2.5577-.1324.3561.4356.5091.568.1559z" fill="#e27356"/><path d="m74.7002 94.3643c-.4679 1.0331-.6151 2.0985-.4532 3.2199.053.3738.621.2149.568-.156-.1383-.9506-.0029-1.8925.3944-2.7666.156-.3414-.3532-.6416-.5092-.2973z" fill="#e27356"/><path d="m74.9426 79.2476c.4032.8447.5533 1.763.4238 2.6901-.05.3708.5151.5298.568.156.1501-1.0979-.0059-2.1427-.4827-3.1463-.1648-.3385-.674-.0383-.5091.3002z" fill="#e27356"/><path d="m81.3751 68.9817c.5327.8389 1.2862 1.454 2.2045 1.8219.3502.1413.5032-.4268.1559-.5681-.7711-.309-1.4098-.8535-1.8542-1.551-.2001-.3179-.7093-.0236-.5062.2972z" fill="#e27356"/><path d="m72.3018 60.9466c.9065-.5298 1.6983-1.2155 2.3428-2.0455.2296-.2943-.1854-.7152-.415-.415-.6151.7917-1.3568 1.448-2.2221 1.9543-.3296.1883-.0353.6975.2943.5062z" fill="#e27356"/><path d="m65.216 64.5106c1.1802-.5504 2.4517.2501 2.4958 1.5393.0118.3767.6034.3796.5887 0-.0619-1.7601-1.7984-2.7843-3.3818-2.0456-.3414.159-.0442.6652.2973.5063z" fill="#e27356"/><path d="m71.8076 89.039c1.2068.3238 2.437.1413 3.4907-.5327.3179-.2031.0235-.7122-.2973-.5092-.9241.5916-1.9749.7594-3.0374.4739-.3679-.0971-.5239.4709-.156.568z" fill="#e27356"/><g fill="#f7ebe7"><path d="m103.79 61.9539c-.151.4356-.421.8241-.81 1.0742-1.124.7241-2.419-.1736-2.484-1.4245-.047-.8712.333-1.6953.901-2.3575.094.0795.188.156.279.2355v.0029c.919.7888 1.675 1.6217 2.114 2.4694z"/><path d="m96.1955 73.6204c.0412.986-.7917 2.4311-1.0271 2.6313-.2355.2001-.4445.4385-.7447.3738-.9653-.209-1.1361-1.5511-1.1037-2.3752.0324-.8536.4621-1.8601 1.3333-2.1604 1.0684-.3679 1.504.6505 1.5422 1.5305z"/><path d="m92.1166 65.4346c-.0736.2884-.3355.521-.7005.4032-.8064-.259-1.5716-.8741-1.4834-1.8101.0795-.8535 1.0419-1.448 1.8101-.9742.7064.4386.4474 2.0927.3738 2.3811z"/><path d="m81.9685 69.3059c-1.1831.5268-2.2633-.7505-2.5194-1.5511-.3649-1.1243.4445-2.5135 1.7454-2.2251 1.2626.2826 1.9572 3.2494.774 3.7762z"/><path d="m75.6362 58.6035c-.5857.6534-1.5599.7888-2.3104.2678-.7623-.5298-.9654-1.5216-.7652-2.384 1.7159.206 1.4068 1.8219 3.0756 2.1162z"/><path d="m68.8051 68.1256c-.1206.6122-.5739 1.1949-1.2597 1.0831-.7505-.1178-1.0801-.9389-1.1095-1.6129-.0383-.9065.415-1.6924.8859-2.437.3384-.5386.777-.4856 1.0772.4062s.5651 1.7129.4061 2.5606z"/><path d="m75.1288 79.9537c-1.1743-.5622-2.8372-2.6637-1.2832-3.7379.6122-.4239 1.3921-.2178 1.7747.4091.4445.7328.3797 1.9513.3768 2.5841-.003.6328-.3326 1.0007-.8683.7447z"/><path d="m72.5992 88.7916c-.4268.8536-1.4981.7241-2.2574.5828-.8153-.1531-1.5923-.8271-1.4864-1.7247.0942-.8094.9095-1.2391 1.6659-1.142.7976.103 2.5047 1.4304 2.0779 2.2839z"/><path d="m76.7759 93.7697c-.1324.9065-1.6717 1.9013-2.3369 1.6246-.6652-.2766-.6799-1.2067-.6063-1.5304.1207-.5298.5239-.883.9477-1.1862.4179-.3002.9183-.4944 1.4039-.206.4386.259.6622.8065.5916 1.298z"/><path d="m92.9083 95.7892c-1.0037-.1766-2.0426-1.3245-2.1015-2.5194-.05-1.0272.7976-1.9955 1.863-1.5187.5622.2531.8683.8005.9978 1.3833.1207.5474.2443 2.8314-.7593 2.6548z"/><path d="m87.9067 79.351c-.0883.4945-.2766.9595-.5827 1.3333-.2561-.0353-.4327-.0707-.518-.1089-.2826-.1207-.83-.4709-1.554-.9919.0176-.4827.1383-.9624.362-1.4068.3355-.6652 1.0419-1.3539 1.8395-.9301.7152.3826.5739 1.4304.4532 2.1044z"/></g><path d="m114.746 95.8921c-.039-.018-.081-.0419-.117-.0718.039.015.078.0419.117.0718z" fill="#00f8f6"/><path d="m122.263 98.2955c-.173.7475-.524 1.4833-1.139 1.9365-.874.636-2.11.562-3.084.094-.465-.223-.889-.5207-1.281-.8591-.426-.3679-.824-.777-1.212-1.1832-.536-.5563-1.701-2.0043-1.551-2.2604.129-.2178.382-.3238.627-.2031.035.0294.076.053.114.0706-.038-.0294-.076-.0559-.114-.0706-.277-.2148-.504-.7446-.345-1.0095.18-.3002.833-.1325 1.027.1589-.185-.4032-.344-.9477-.008-1.2332.2-.1707.509-.1619.744-.05.239.1148.421.3149.598.5091-.118-.1765-.239-.362-.265-.5709-.027-.209.07-.4533.271-.518.194-.0648.4.05.568.1736.803.5887 1.492 1.4334 2.322 1.9278.009.003.015.0089.023.0118l-.02-.0206 1.357-2.0809c.144.2031.32.4474.509.7123.909 1.2685 1.209 2.9462.859 4.4649z" fill="#e1a897"/><path d="m114.629 95.8203c.039.015.078.0419.117.0718-.039-.018-.081-.0419-.117-.0718z" fill="#e1a897"/><path d="m215.551 143.025c.133 1.769-.041 3.367-.471 5.086-.091.368.477.524.568.156.442-1.778.627-3.414.492-5.242-.027-.377-.615-.38-.589 0z" fill="#e1a897"/><path d="m217.097 142.915c.229 1.663.035 3.279-.259 4.918-.068.371.5.53.568.156.315-1.748.503-3.461.259-5.233-.05-.371-.618-.212-.568.159z" fill="#e1a897"/><path d="m218.665 142.451c.05 1.604.053 3.299-.282 4.874-.08.37.488.526.568.156.35-1.631.356-3.37.306-5.03-.015-.377-.604-.38-.592 0z" fill="#e1a897"/><path d="m114.398 95.8575c.983 1.242 1.916 2.6872 3.408 3.3553.171.0765.321-.1766.148-.2531-1.463-.6534-2.382-2.0897-3.347-3.3082-.118-.1501-.327.0588-.209.206z" fill="#a37052"/><path d="m115.216 95.0701c.951 1.1125 1.984 2.1161 3.073 3.0962.141.1266.35-.0824.209-.2089-1.089-.9772-2.122-1.9808-3.073-3.0963-.123-.1442-.329.0647-.209.209z" fill="#a37052"/><path d="m116.478 94.2422c.88 1.1449 1.942 2.1485 3.122 2.9756.156.1089.303-.1472.147-.2531-1.136-.7977-2.172-1.7689-3.016-2.8697-.115-.1501-.371-.0029-.253.1472z" fill="#a37052"/><path d="m100.941 81.2953c-.033.1972-.068.3944-.106.5916-.198-.0059-.398-.0118-.598-.0177.041-.1972.08-.3914.109-.5886.612-3.6349 0-7.5023-1.7336-10.7516-.0765-.1442-.0206-.3208.1236-.3973.1443-.0766.3209-.0236.3974.1206 1.7776 3.3376 2.4196 7.3051 1.8076 11.043z" fill="#00eda2"/><path d="m202.801 28.9493c-.1.3443-.218.6887-.33 1.0213-.223.6534-.453 1.3303-.544 2.019-.074.571-.053 1.1626-.033 1.7336.015.4562.033.9241.003 1.3892-.138 2.1279-1.221 4.0175-2.269 5.8452-.444.777-.903 1.5776-1.286 2.3929.006-.0442.006-.0854.006-.1207 0-.9566-3.005-4.2059-3.005-4.6739 0-.465 1.192-2.0072 1.192-3.6407 0-1.0272-.421-1.7277-1.425-1.7277-.797 0-1.624 1.0772-1.93 1.6688-.148.2855-.457.4621-.766.3915-.135-.0324-.244-.106-.267-.262-.071-.468.303-3.4318.303-3.8056 0-3.5465-4.062-3.9439-5.625-4.5266-1.563-.5828-1.354.2796-2.519.2796-1.169 0-1.681-.8389-2.614-.6534-.933.1883-1.633.8653-1.936.9094-.218.0324-.454.0206-.574.0059-.112-.2148-.148-.4532-.183-.6622-.382-2.4399-.624-4.7827.606-6.6546.092-.1413.198-.2826.351-.3738.144-.0913.309-.1207.453-.1413.898-.1295 1.828-.053 2.725.0177 1.307.1059 2.54.206 3.685-.2679.174-.0736.348-.1589.518-.2443.462-.2295.936-.4709 1.475-.4591.639.0118 1.168.3679 1.68.7123.38.2531.772.518 1.195.6298.674.1766 1.36-.0265 2.09-.2384.727-.2119 1.48-.4327 2.231-.2443.612.156 1.104.5592 1.578.9477.447.365.865.7064 1.377.8653.321.1001.656.1207 1.012.1413.377.0206.769.0442 1.139.1707 1.525.521 1.919 2.4282 2.02 3.2228.182 1.4393.064 2.9374-.333 4.3325z" fill="#000"/><path d="m108.427 225.412c.02.397-.109.783-.365 1.086-.118.141-.242.276-.371.409-3.032 3.182-8.3676 4.382-11.3992 4.821-.309.044-.5974.082-.8535.112-.8094.097-1.5364-.492-1.6158-1.304-.933-9.521-1.869-55.344-2.0456-57.876-.1854-2.707-1.9601-15.31-3.4524-27.828-1.0242-8.573-1.5216-11.222-1.7335-12.041-.0206-.085-.1442-.07-.1472.015-.5062 14.189-5.4155 36.384-6.1513 39.637-.0589.27-.0971.538-.1148.815-.1442 2.366-.9448 14.742-2.8932 31.33-1.6717 14.231-.2561 23.373.4827 26.825.1707.798-.4356 1.554-1.2538 1.554h-3.2846c-1.8602 0-5.7364.898-8.4824 1.601-.4444.115-.8594.224-1.2303.324-.9124.241-1.7953-.465-1.7571-1.407.2414-5.76.9595-22.866 1.2744-27.964.365-5.874 3.8969-31.848 4.2265-34.259.0147-.12.0206-.241.0177-.362-.0736-1.972-.6946-19.599-.5122-33.164.1531-11.337 3.5025-28.34 4.9123-35.036.0441-.203.0853-.394.1236-.577.1089-.521.206-.959.2825-1.31 1.195-.45 5.7658-2.0864 9.0033-2.2306 2.6372-.1148 4.3295.2031 6.2897.571.88.1648 1.7866.3326 2.8667.4856 3.526.494 10.0575.5 10.1215.5.083 0 .156-.032.209-.085.371 4.026 2.181 23.666 3.403 37.567 1.368 15.561.247 25.391 1.118 33.609.815 7.673 3.04 48.787 3.332 54.182z" fill="#808080"/><path d="m98.5729 102.116c-.0854.076-2.1809 1.883-11.4903 1.883-.156 0-.312-.003-.4709-.003-7.4023-.047-12.8001-.9-14.934-1.298.0442-.203.0854-.394.1237-.577 2.1073.395 7.464 1.24 14.8132 1.287 9.486.058 11.5433-1.71 11.561-1.728.1206-.109.309-.1.4179.018.1089.12.1001.309-.0206.418z" fill="#d9d9d9"/><path d="m91.6224 53.7181c-.1266.0295-.2914.0589-.5062.0854-.6917-1.3098-1.2274-2.2634-1.8189-3.8556-.4415-1.1891-.4592-2.0014.0765-2.4635.0912 1.6776.7034 2.9815 1.5246 4.7297l.2531.5357c.1707.365.3267.6858.4709.9683z" fill="#e2bc97"/><path d="m99.5756 57.1972c-.3532-.2295-.7094-.4503-1.0655-.6622h-.0029c-.7476-1.1184-1.866-2.2309-3.3406-3.317-1.2862-.9477-3.1963-4.3648-4.1646-6.2043.0971-.0029.203-.0059.309-.0059.1236 0 .2413.003.3561.0118.986 1.8454 2.7225 4.8975 3.8468 5.7245 1.9573 1.4393 3.32 2.9344 4.0617 4.4531z" fill="#e2bc97"/><path d="m98.045 41.4653c-.0147.2678-.0294.5298-.0383.7888-.0058.05-.0088.1-.0088.1501-.0176.359-.0324.7063-.0471 1.0448-1.1272-.3797-2.6459-1.6247-2.8284-2.1544-.0265-.0795.053-.156.1324-.1207.4974.2178 2.2428.2502 2.7902.2914z" fill="#e27356"/><path d="m98.0057 42.2539c-.0059.05-.0088.1001-.0088.1501h-.0118c-.9359-.1913-1.9602-.5828-1.9719-.5886-.0383-.0148-.056-.056-.0412-.0942.0147-.0383.0559-.0559.0941-.0412.0089.0029 1.0184.3885 1.9396.5739z" fill="#000"/><path d="m97.8092 31.8106c-2.2634-.4415-3.1846.7152-3.2258.7682-.0736.0942-.1825.1442-.2943.1442-.0766 0-.1531-.0236-.2208-.0736-.1619-.1207-.1942-.3502-.0736-.5121.0501-.0677 1.1626-1.5158 3.7674-1.0831.0176.2649.0324.518.0471.7564z" fill="#a37052"/><path d="m126.329 79.5391c-.724-.1442-1.448-.2737-2.175-.3326 1.192-.3002 2.143-.4032 2.231-.0059.027.1207.003.2355-.056.3385z" fill="#e1a897"/><path d="m129.103 81.7905c.185.1766.23.4474.174.7064v.0118c-.047.3531-.259.7122-.724.8594.353.3296.203.9595-.174 1.2597-.353.2766-.821.3443-1.271.3796-.033.003-.062.0059-.095.0089 0 0-.285-.0088-.75-.0206.226-.3267.424-.6711.589-1.0331.103-.2266.197-.4768.147-.724-.053-.2531-.271-.4621-.527-.5033-.256-.0442-.53.0853-.662.3061.056-.3473-.171-.7211-.507-.8271-.335-.1059-.735.0618-.894.3768-.021-.3002-.248-.5681-.536-.6446l-.009-.0029c-.282-.0736-.606.047-.777.2884.218-.4091-.218-.9242-.677-.9536-.462-.0353-.886.2413-1.251.5268-.78.6093-1.513 1.3686-1.754 2.3311-.044.1854-.068.3885-.041.5768.021.1442.074.2767.162.3944.047.0589.109.106.176.1413-.126.0265-.244.053-.35.0795-1.96.5121-4.738 1.7688-6.928 2.4664.503-1.0184 1.627-3.6408 1.207-6.0189-.012-.0589-.039-.1089-.077-.1501 1.86-.1383 3.756-.0736 5.498-.7152.23-.0854 1.28-.4945 2.519-.9212.333.4944 1.637.674 2.373.7858.085.0147.173.0235.262.0324.114.0117.232.0176.347.0235.088.003.176.0059.265.0059.382.0059.768-.0265 1.156-.0736.003.003.003.003.006 0 .25-.0294.501-.0647.754-.103.379-.0559.759-.1207 1.139-.1707.294-.0383.6-.0706.889 0 .291.0706.568.2649.656.5504.091.2855-.071.6475-.365.7034.018.0147.035.0294.05.0471z" fill="#e1a897"/><path d="m125.973 80.7637c-.388.0471-.774.0794-1.157.0736.386 0 .772-.0295 1.157-.0736z" fill="#e1a897"/><path d="m125.973 80.7637c-.388.0471-.774.0794-1.157.0736.386 0 .772-.0295 1.157-.0736z" fill="#f6cabd"/><path d="m129.099 86.0545c-.021.1413-.041.2855-.021.4238-1.239.3679-3.302.1825-4.226.0618-.036.0324-.068.0589-.103.0883-.194.156-.409.2649-.724.159-.221-.0707-.371-.2855-.418-.521-.024-.1118-.147-.1707-.247-.1118-.215.1324-.492.1648-.724.0677-.201-.0824-.351-.2561-.427-.4562-.059-.159-.256-.2031-.389-.0942-.209.1707-.45.2855-.715.2855-.371.0059-.739-.3061-.759-.6534-.006-.0559-.065-.0824-.112-.053-.15.0883-.365.0824-.533-.0029-.068-.0354-.129-.0824-.176-.1413-.089-.1177-.142-.2502-.162-.3944-.027-.1884-.003-.3914.041-.5769.241-.9624.974-1.7218 1.754-2.331.365-.2855.789-.5622 1.251-.5268.459.0294.895.5445.677.9536.171-.2414.494-.3621.777-.2885l.009.003c.288.0765.515.3443.535.6445.159-.3149.56-.4827.895-.3767.336.106.562.4797.506.827.133-.2207.407-.3502.663-.306.256.0412.473.2501.526.5032.05.2473-.044.4974-.147.7241-.165.362-.362.7064-.588 1.0331.465.0117.75.0205.75.0205.033-.0029.062-.0058.094-.0088.451-.0353.919-.103 1.272-.3797.377-.3002.527-.93.173-1.2596.465-.1472.677-.5063.724-.8595v-.0117c.056-.2591.012-.5298-.173-.7064-.015-.0177-.033-.0324-.05-.0471.294-.0559.456-.4179.365-.7034-.089-.2855-.365-.4798-.657-.5504-.288-.0707-.594-.0383-.888 0-.38.05-.76.1148-1.139.1707-.251.0353-.504.0736-.754.103-.003.0029-.003.0029-.006 0-.385.0441-.771.0736-1.157.0736-.088 0-.176-.003-.264-.0059-.115-.0059-.233-.0118-.348-.0236-.088-.0088-.176-.0176-.262-.0323-.735-.1119-2.039-.2914-2.372-.7859-.041-.0559-.068-.1177-.076-.1825-.103-.6357.668-.5651 1.115-.6033.515-.0471 1.03-.0383 1.545.0029.727.0589 1.451.1884 2.175.3326 1.183.2325 2.364.5092 3.547.5887.203 1.9631-.477 3.9527-.777 5.9276z" fill="#f6cabd"/></g></svg>